<svg width="134" height="83" viewBox="0 0 134 83" fill="none" xmlns="http://www.w3.org/2000/svg">
<g filter="url(#filter0_d_5003_2834)">
<path d="M103.463 30.8241C102.227 30.8241 101.224 31.8272 101.224 33.0631C101.224 33.6712 101.468 34.2203 101.861 34.6235C97.7225 38.4901 93.374 40.7651 88.9912 40.6274V32.5648C90.0221 32.5648 90.8597 31.7289 90.8597 30.6963C90.8597 29.6637 90.0238 28.8277 88.9912 28.8277C87.9585 28.8277 87.1226 29.6637 87.1226 30.6963C87.1226 31.1519 87.2914 31.5634 87.5635 31.8879L80.9056 37.4427C77.4603 34.7415 74.0592 30.216 70.7892 23.4598C72.0988 23.2483 73.102 22.1223 73.102 20.752C73.102 19.2326 71.8694 18 70.3499 18C68.8305 18 67.5979 19.2326 67.5979 20.752C67.5979 22.1206 68.601 23.2483 69.9107 23.4598C66.6407 30.2177 63.2396 34.7415 59.7943 37.4427L53.138 31.8879C53.4085 31.5634 53.5789 31.1519 53.5789 30.6963C53.5789 29.6653 52.743 28.8277 51.7104 28.8277C50.6778 28.8277 49.8418 29.6637 49.8418 30.6963C49.8418 31.7289 50.6778 32.5648 51.7104 32.5648V40.6274C47.3275 40.7651 42.9807 38.4901 38.8404 34.6235C39.2337 34.2203 39.478 33.6696 39.478 33.0631C39.478 31.8272 38.4765 30.8241 37.239 30.8241C36.0015 30.8241 35 31.8272 35 33.0631C35 34.299 36.0015 35.3021 37.239 35.3021C37.7569 35.3021 38.229 35.1185 38.6076 34.8235C46.6161 45.6315 46.744 57.6361 46.744 57.6361H93.9592C93.9592 57.6361 94.087 45.6315 102.096 34.8235C102.474 35.1185 102.946 35.3021 103.464 35.3021C104.702 35.3021 105.703 34.299 105.703 33.0631C105.703 31.8272 104.702 30.8241 103.464 30.8241H103.463Z" fill="url(#paint0_linear_5003_2834)"/>
<path d="M93.9641 61.1931H46.7423V68.0002H93.9641V61.1931Z" fill="url(#paint1_linear_5003_2834)"/>
</g>
<path d="M25.3503 16.618L26.5703 17.208C26.6357 17.2375 26.6913 17.2863 26.7302 17.3466C26.7692 17.4069 26.7899 17.4772 26.7899 17.549C26.7899 17.6207 26.7692 17.691 26.7302 17.7513C26.6913 17.8116 26.6357 17.8594 26.5703 17.889L25.3503 18.479C24.6955 18.7985 24.1875 19.3562 23.9303 20.038L23.2403 21.878C23.2131 21.9487 23.1651 22.0095 23.1026 22.0524C23.0401 22.0954 22.9661 22.1183 22.8903 22.1183C22.8145 22.1183 22.7405 22.0954 22.678 22.0524C22.6155 22.0095 22.5675 21.9487 22.5403 21.878L21.8503 20.038C21.5933 19.3558 21.0853 18.7978 20.4303 18.478L19.2103 17.888C19.1471 17.8564 19.094 17.8079 19.0568 17.7478C19.0197 17.6878 19 17.6186 19 17.548C19 17.4773 19.0197 17.4081 19.0568 17.3481C19.094 17.288 19.1471 17.2395 19.2103 17.208L20.4303 16.618C21.0853 16.2981 21.5933 15.7401 21.8503 15.058L22.5403 13.218C22.5724 13.1526 22.6223 13.0975 22.6841 13.0589C22.746 13.0204 22.8174 13 22.8903 13C22.9632 13 23.0346 13.0204 23.0965 13.0589C23.1583 13.0975 23.2081 13.1526 23.2403 13.218L23.9303 15.058C24.1873 15.7401 24.6953 16.2981 25.3503 16.618Z" fill="#FFDD82"/>
<path d="M124.35 55.618L125.57 56.208C125.636 56.2375 125.691 56.2863 125.73 56.3466C125.769 56.4069 125.79 56.4772 125.79 56.549C125.79 56.6207 125.769 56.691 125.73 56.7513C125.691 56.8116 125.636 56.8594 125.57 56.889L124.35 57.479C123.695 57.7985 123.188 58.3562 122.93 59.038L122.24 60.878C122.213 60.9487 122.165 61.0095 122.103 61.0524C122.04 61.0954 121.966 61.1183 121.89 61.1183C121.814 61.1183 121.74 61.0954 121.678 61.0524C121.616 61.0095 121.568 60.9487 121.54 60.878L120.85 59.038C120.593 58.3558 120.085 57.7978 119.43 57.478L118.21 56.888C118.147 56.8564 118.094 56.8079 118.057 56.7478C118.02 56.6878 118 56.6186 118 56.548C118 56.4773 118.02 56.4081 118.057 56.3481C118.094 56.288 118.147 56.2395 118.21 56.208L119.43 55.618C120.085 55.2981 120.593 54.7401 120.85 54.058L121.54 52.218C121.572 52.1526 121.622 52.0975 121.684 52.0589C121.746 52.0204 121.817 52 121.89 52C121.963 52 122.035 52.0204 122.096 52.0589C122.158 52.0975 122.208 52.1526 122.24 52.218L122.93 54.058C123.187 54.7401 123.695 55.2981 124.35 55.618Z" fill="#FFDD82"/>
<path d="M33.3503 61.618L34.5703 62.208C34.6357 62.2375 34.6913 62.2863 34.7302 62.3466C34.7692 62.4069 34.7899 62.4772 34.7899 62.549C34.7899 62.6207 34.7692 62.691 34.7302 62.7513C34.6913 62.8116 34.6357 62.8594 34.5703 62.889L33.3503 63.479C32.6955 63.7985 32.1875 64.3562 31.9303 65.038L31.2403 66.878C31.2131 66.9487 31.1651 67.0095 31.1026 67.0524C31.0401 67.0954 30.9661 67.1183 30.8903 67.1183C30.8145 67.1183 30.7405 67.0954 30.678 67.0524C30.6155 67.0095 30.5675 66.9487 30.5403 66.878L29.8503 65.038C29.5933 64.3558 29.0853 63.7978 28.4303 63.478L27.2103 62.888C27.1471 62.8564 27.094 62.8079 27.0568 62.7478C27.0197 62.6878 27 62.6186 27 62.548C27 62.4773 27.0197 62.4081 27.0568 62.3481C27.094 62.288 27.1471 62.2395 27.2103 62.208L28.4303 61.618C29.0853 61.2981 29.5933 60.7401 29.8503 60.058L30.5403 58.218C30.5724 58.1526 30.6223 58.0975 30.6841 58.0589C30.746 58.0204 30.8174 58 30.8903 58C30.9632 58 31.0346 58.0204 31.0965 58.0589C31.1583 58.0975 31.2081 58.1526 31.2403 58.218L31.9303 60.058C32.1873 60.7401 32.6953 61.2981 33.3503 61.618Z" fill="#FFDD82"/>
<path d="M132.35 19.618L133.57 20.208C133.636 20.2375 133.691 20.2863 133.73 20.3466C133.769 20.4069 133.79 20.4772 133.79 20.549C133.79 20.6207 133.769 20.691 133.73 20.7513C133.691 20.8116 133.636 20.8594 133.57 20.889L132.35 21.479C131.695 21.7985 131.188 22.3562 130.93 23.038L130.24 24.878C130.213 24.9487 130.165 25.0095 130.103 25.0524C130.04 25.0954 129.966 25.1183 129.89 25.1183C129.814 25.1183 129.74 25.0954 129.678 25.0524C129.616 25.0095 129.568 24.9487 129.54 24.878L128.85 23.038C128.593 22.3558 128.085 21.7978 127.43 21.478L126.21 20.888C126.147 20.8564 126.094 20.8079 126.057 20.7478C126.02 20.6878 126 20.6186 126 20.548C126 20.4773 126.02 20.4081 126.057 20.3481C126.094 20.288 126.147 20.2395 126.21 20.208L127.43 19.618C128.085 19.2981 128.593 18.7401 128.85 18.058L129.54 16.218C129.572 16.1526 129.622 16.0975 129.684 16.0589C129.746 16.0204 129.817 16 129.89 16C129.963 16 130.035 16.0204 130.096 16.0589C130.158 16.0975 130.208 16.1526 130.24 16.218L130.93 18.058C131.187 18.7401 131.695 19.2981 132.35 19.618Z" fill="#FFDD82"/>
<path d="M82.3503 8.61795L83.5703 9.20795C83.6357 9.23748 83.6913 9.28627 83.7302 9.34658C83.7692 9.40689 83.7899 9.47716 83.7899 9.54895C83.7899 9.62075 83.7692 9.69102 83.7302 9.75133C83.6913 9.81164 83.6357 9.85943 83.5703 9.88895L82.3503 10.479C81.6955 10.7985 81.1875 11.3562 80.9303 12.038L80.2403 13.878C80.2131 13.9487 80.1651 14.0095 80.1026 14.0524C80.0401 14.0954 79.9661 14.1183 79.8903 14.1183C79.8145 14.1183 79.7405 14.0954 79.678 14.0524C79.6155 14.0095 79.5675 13.9487 79.5403 13.878L78.8503 12.038C78.5933 11.3558 78.0853 10.7978 77.4303 10.478L76.2103 9.88795C76.1471 9.85642 76.094 9.8079 76.0568 9.74784C76.0197 9.68779 76 9.61857 76 9.54795C76 9.47734 76.0197 9.40812 76.0568 9.34806C76.094 9.28801 76.1471 9.23949 76.2103 9.20795L77.4303 8.61795C78.0853 8.29814 78.5933 7.74006 78.8503 7.05795L79.5403 5.21795C79.5724 5.15255 79.6223 5.09747 79.6841 5.05894C79.746 5.02042 79.8174 5 79.8903 5C79.9632 5 80.0346 5.02042 80.0965 5.05894C80.1583 5.09747 80.2081 5.15255 80.2403 5.21795L80.9303 7.05795C81.1873 7.74006 81.6953 8.29814 82.3503 8.61795Z" fill="#FFDD82"/>
<path d="M8.96715 32.1581L10.6899 32.9993C10.7823 33.0414 10.8607 33.1109 10.9157 33.1969C10.9707 33.2829 11 33.3831 11 33.4854C11 33.5878 10.9707 33.688 10.9157 33.774C10.8607 33.86 10.7823 33.9281 10.6899 33.9702L8.96715 34.8113C8.0425 35.267 7.3252 36.0621 6.96199 37.034L5.98765 39.6573C5.94923 39.7582 5.88143 39.8449 5.7932 39.9061C5.70497 39.9673 5.60045 40 5.49342 40C5.38639 40 5.28187 39.9673 5.19364 39.9061C5.10541 39.8449 5.03762 39.7582 4.99919 39.6573L4.02486 37.034C3.66195 36.0615 2.94462 35.2659 2.0197 34.8099L0.296954 33.9688C0.207735 33.9238 0.13269 33.8546 0.0802371 33.769C0.0277846 33.6834 -9.16439e-08 33.5847 -9.02427e-08 33.484C-8.88415e-08 33.3833 0.0277846 33.2847 0.0802371 33.199C0.13269 33.1134 0.207735 33.0442 0.296954 32.9993L2.0197 32.1581C2.94462 31.7022 3.66195 30.9065 4.02486 29.934L4.99919 27.3107C5.04459 27.2175 5.11496 27.139 5.20231 27.084C5.28967 27.0291 5.39052 27 5.49342 27C5.59633 27 5.69718 27.0291 5.78454 27.084C5.87189 27.139 5.94226 27.2175 5.98765 27.3107L6.96199 29.934C7.3249 30.9065 8.04223 31.7022 8.96715 32.1581Z" fill="#FFDD82"/>
<path d="M108.967 5.15812L110.69 5.99928C110.782 6.04138 110.861 6.11093 110.916 6.19692C110.971 6.2829 111 6.38309 111 6.48545C111 6.58781 110.971 6.68799 110.916 6.77398C110.861 6.85996 110.782 6.92809 110.69 6.97018L108.967 7.81135C108.042 8.26697 107.325 9.06207 106.962 10.034L105.988 12.6573C105.949 12.7582 105.881 12.8449 105.793 12.9061C105.705 12.9673 105.6 13 105.493 13C105.386 13 105.282 12.9673 105.194 12.9061C105.105 12.8449 105.038 12.7582 104.999 12.6573L104.025 10.034C103.662 9.06154 102.945 8.26589 102.02 7.80992L100.297 6.96876C100.208 6.9238 100.133 6.85463 100.08 6.76901C100.028 6.68338 100 6.5847 100 6.48402C100 6.38335 100.028 6.28466 100.08 6.19904C100.133 6.11342 100.208 6.04424 100.297 5.99928L102.02 5.15812C102.945 4.70216 103.662 3.9065 104.025 2.93403L104.999 0.310737C105.045 0.217493 105.115 0.138957 105.202 0.0840348C105.29 0.0291122 105.391 6.49653e-09 105.493 6.62055e-09C105.596 6.74457e-09 105.697 0.0291122 105.785 0.0840348C105.872 0.138957 105.942 0.217493 105.988 0.310737L106.962 2.93403C107.325 3.9065 108.042 4.70216 108.967 5.15812Z" fill="#FFDD82"/>
<path d="M28.076 36.3807L28.859 36.7689C28.901 36.7883 28.9367 36.8204 28.9617 36.8601C28.9867 36.8998 29 36.946 29 36.9933C29 37.0405 28.9867 37.0868 28.9617 37.1265C28.9367 37.1661 28.901 37.1976 28.859 37.217L28.076 37.6052C27.6557 37.8155 27.3296 38.1825 27.1645 38.6311L26.7217 39.8418C26.7042 39.8884 26.6734 39.9284 26.6333 39.9567C26.5932 39.9849 26.5457 40 26.497 40C26.4484 40 26.4009 39.9849 26.3607 39.9567C26.3206 39.9284 26.2898 39.8884 26.2724 39.8418L25.8295 38.6311C25.6645 38.1822 25.3385 37.815 24.918 37.6046L24.135 37.2164C24.0944 37.1956 24.0603 37.1637 24.0365 37.1242C24.0126 37.0846 24 37.0391 24 36.9926C24 36.9462 24.0126 36.9006 24.0365 36.8611C24.0603 36.8216 24.0944 36.7897 24.135 36.7689L24.918 36.3807C25.3385 36.1702 25.6645 35.803 25.8295 35.3542L26.2724 34.1434C26.293 34.1004 26.325 34.0641 26.3647 34.0388C26.4044 34.0134 26.4502 34 26.497 34C26.5438 34 26.5896 34.0134 26.6293 34.0388C26.669 34.0641 26.701 34.1004 26.7217 34.1434L27.1645 35.3542C27.3295 35.803 27.6556 36.1702 28.076 36.3807Z" fill="#FFDD82"/>
<path d="M46.076 21.3807L46.859 21.7689C46.901 21.7883 46.9367 21.8204 46.9617 21.8601C46.9867 21.8998 47 21.946 47 21.9933C47 22.0405 46.9867 22.0868 46.9617 22.1265C46.9367 22.1661 46.901 22.1976 46.859 22.217L46.076 22.6052C45.6557 22.8155 45.3296 23.1825 45.1645 23.6311L44.7217 24.8418C44.7042 24.8884 44.6734 24.9284 44.6333 24.9567C44.5932 24.9849 44.5457 25 44.497 25C44.4484 25 44.4009 24.9849 44.3607 24.9567C44.3206 24.9284 44.2898 24.8884 44.2724 24.8418L43.8295 23.6311C43.6645 23.1822 43.3385 22.815 42.918 22.6046L42.135 22.2164C42.0944 22.1956 42.0603 22.1637 42.0365 22.1242C42.0126 22.0846 42 22.0391 42 21.9926C42 21.9462 42.0126 21.9006 42.0365 21.8611C42.0603 21.8216 42.0944 21.7897 42.135 21.7689L42.918 21.3807C43.3385 21.1702 43.6645 20.803 43.8295 20.3542L44.2724 19.1434C44.293 19.1004 44.325 19.0641 44.3647 19.0388C44.4044 19.0134 44.4502 19 44.497 19C44.5438 19 44.5896 19.0134 44.6293 19.0388C44.669 19.0641 44.701 19.1004 44.7217 19.1434L45.1645 20.3542C45.3295 20.803 45.6556 21.1702 46.076 21.3807Z" fill="#FFDD82"/>
<path d="M110.076 67.3807L110.859 67.7689C110.901 67.7883 110.937 67.8204 110.962 67.8601C110.987 67.8998 111 67.946 111 67.9933C111 68.0405 110.987 68.0868 110.962 68.1265C110.937 68.1661 110.901 68.1976 110.859 68.217L110.076 68.6052C109.656 68.8155 109.33 69.1825 109.165 69.6311L108.722 70.8418C108.704 70.8884 108.673 70.9284 108.633 70.9567C108.593 70.9849 108.546 71 108.497 71C108.448 71 108.401 70.9849 108.361 70.9567C108.321 70.9284 108.29 70.8884 108.272 70.8418L107.829 69.6311C107.665 69.1822 107.338 68.815 106.918 68.6046L106.135 68.2164C106.094 68.1956 106.06 68.1637 106.036 68.1242C106.013 68.0846 106 68.0391 106 67.9926C106 67.9462 106.013 67.9006 106.036 67.8611C106.06 67.8216 106.094 67.7897 106.135 67.7689L106.918 67.3807C107.338 67.1702 107.665 66.803 107.829 66.3542L108.272 65.1434C108.293 65.1004 108.325 65.0641 108.365 65.0388C108.404 65.0134 108.45 65 108.497 65C108.544 65 108.59 65.0134 108.629 65.0388C108.669 65.0641 108.701 65.1004 108.722 65.1434L109.165 66.3542C109.329 66.803 109.656 67.1702 110.076 67.3807Z" fill="#FFDD82"/>
<path d="M112.076 43.3807L112.859 43.7689C112.901 43.7883 112.937 43.8204 112.962 43.8601C112.987 43.8998 113 43.946 113 43.9933C113 44.0405 112.987 44.0868 112.962 44.1265C112.937 44.1661 112.901 44.1976 112.859 44.217L112.076 44.6052C111.656 44.8155 111.33 45.1825 111.165 45.6311L110.722 46.8418C110.704 46.8884 110.673 46.9284 110.633 46.9567C110.593 46.9849 110.546 47 110.497 47C110.448 47 110.401 46.9849 110.361 46.9567C110.321 46.9284 110.29 46.8884 110.272 46.8418L109.829 45.6311C109.665 45.1822 109.338 44.815 108.918 44.6046L108.135 44.2164C108.094 44.1956 108.06 44.1637 108.036 44.1242C108.013 44.0846 108 44.0391 108 43.9926C108 43.9462 108.013 43.9006 108.036 43.8611C108.06 43.8216 108.094 43.7897 108.135 43.7689L108.918 43.3807C109.338 43.1702 109.665 42.803 109.829 42.3542L110.272 41.1434C110.293 41.1004 110.325 41.0641 110.365 41.0388C110.404 41.0134 110.45 41 110.497 41C110.544 41 110.59 41.0134 110.629 41.0388C110.669 41.0641 110.701 41.1004 110.722 41.1434L111.165 42.3542C111.329 42.803 111.656 43.1702 112.076 43.3807Z" fill="#FFDD82"/>
<path d="M61.076 4.38067L61.859 4.7689C61.901 4.78833 61.9367 4.82043 61.9617 4.86012C61.9867 4.8998 62 4.94604 62 4.99328C62 5.04053 61.9867 5.08677 61.9617 5.12645C61.9367 5.16614 61.901 5.19758 61.859 5.21701L61.076 5.60524C60.6557 5.81553 60.3296 6.1825 60.1645 6.63108L59.7217 7.84183C59.7042 7.88838 59.6734 7.92842 59.6333 7.95665C59.5932 7.98489 59.5457 8 59.497 8C59.4484 8 59.4009 7.98489 59.3607 7.95665C59.3206 7.92842 59.2898 7.88838 59.2724 7.84183L58.8295 6.63108C58.6645 6.18225 58.3385 5.81502 57.918 5.60458L57.135 5.21635C57.0944 5.1956 57.0603 5.16367 57.0365 5.12416C57.0126 5.08464 57 5.03909 57 4.99263C57 4.94616 57.0126 4.90061 57.0365 4.86109C57.0603 4.82158 57.0944 4.78965 57.135 4.7689L57.918 4.38067C58.3385 4.17023 58.6645 3.803 58.8295 3.35417L59.2724 2.14342C59.293 2.10038 59.325 2.06413 59.3647 2.03879C59.4044 2.01344 59.4502 2 59.497 2C59.5438 2 59.5896 2.01344 59.6293 2.03879C59.669 2.06413 59.701 2.10038 59.7217 2.14342L60.1645 3.35417C60.3295 3.803 60.6556 4.17023 61.076 4.38067Z" fill="#FFDD82"/>
<path d="M12.076 57.3807L12.859 57.7689C12.901 57.7883 12.9367 57.8204 12.9617 57.8601C12.9867 57.8998 13 57.946 13 57.9933C13 58.0405 12.9867 58.0868 12.9617 58.1265C12.9367 58.1661 12.901 58.1976 12.859 58.217L12.076 58.6052C11.6557 58.8155 11.3296 59.1825 11.1645 59.6311L10.7217 60.8418C10.7042 60.8884 10.6734 60.9284 10.6333 60.9567C10.5932 60.9849 10.5457 61 10.497 61C10.4484 61 10.4009 60.9849 10.3607 60.9567C10.3206 60.9284 10.2898 60.8884 10.2724 60.8418L9.82948 59.6311C9.66452 59.1822 9.33846 58.815 8.91804 58.6046L8.13498 58.2164C8.09443 58.1956 8.06031 58.1637 8.03647 58.1242C8.01263 58.0846 8 58.0391 8 57.9926C8 57.9462 8.01263 57.9006 8.03647 57.8611C8.06031 57.8216 8.09443 57.7897 8.13498 57.7689L8.91804 57.3807C9.33846 57.1702 9.66452 56.803 9.82948 56.3542L10.2724 55.1434C10.293 55.1004 10.325 55.0641 10.3647 55.0388C10.4044 55.0134 10.4502 55 10.497 55C10.5438 55 10.5896 55.0134 10.6293 55.0388C10.669 55.0641 10.701 55.1004 10.7217 55.1434L11.1645 56.3542C11.3295 56.803 11.6556 57.1702 12.076 57.3807Z" fill="#FFDD82"/>
<path d="M20.4456 46.5871L20.9154 46.8459C20.9406 46.8589 20.962 46.8803 20.977 46.9067C20.992 46.9332 21 46.964 21 46.9955C21 47.027 20.992 47.0578 20.977 47.0843C20.962 47.1108 20.9406 47.1317 20.9154 47.1447L20.4456 47.4035C20.1934 47.5437 19.9978 47.7883 19.8987 48.0874L19.633 48.8946C19.6225 48.9256 19.604 48.9523 19.58 48.9711C19.5559 48.9899 19.5274 49 19.4982 49C19.469 49 19.4405 48.9899 19.4164 48.9711C19.3924 48.9523 19.3739 48.9256 19.3634 48.8946L19.0977 48.0874C18.9987 47.7882 18.8031 47.5433 18.5508 47.4031L18.081 47.1442C18.0567 47.1304 18.0362 47.1091 18.0219 47.0828C18.0076 47.0564 18 47.0261 18 46.9951C18 46.9641 18.0076 46.9337 18.0219 46.9074C18.0362 46.8811 18.0567 46.8598 18.081 46.8459L18.5508 46.5871C18.8031 46.4468 18.9987 46.202 19.0977 45.9028L19.3634 45.0956C19.3758 45.0669 19.395 45.0428 19.4188 45.0259C19.4426 45.009 19.4701 45 19.4982 45C19.5263 45 19.5538 45.009 19.5776 45.0259C19.6014 45.0428 19.6206 45.0669 19.633 45.0956L19.8987 45.9028C19.9977 46.202 20.1933 46.4468 20.4456 46.5871Z" fill="#FFDD82"/>
<path d="M116.446 21.5871L116.915 21.8459C116.941 21.8589 116.962 21.8803 116.977 21.9067C116.992 21.9332 117 21.964 117 21.9955C117 22.027 116.992 22.0578 116.977 22.0843C116.962 22.1108 116.941 22.1317 116.915 22.1447L116.446 22.4035C116.193 22.5437 115.998 22.7883 115.899 23.0874L115.633 23.8946C115.623 23.9256 115.604 23.9523 115.58 23.9711C115.556 23.9899 115.527 24 115.498 24C115.469 24 115.441 23.9899 115.416 23.9711C115.392 23.9523 115.374 23.9256 115.363 23.8946L115.098 23.0874C114.999 22.7882 114.803 22.5433 114.551 22.4031L114.081 22.1442C114.057 22.1304 114.036 22.1091 114.022 22.0828C114.008 22.0564 114 22.0261 114 21.9951C114 21.9641 114.008 21.9337 114.022 21.9074C114.036 21.8811 114.057 21.8598 114.081 21.8459L114.551 21.5871C114.803 21.4468 114.999 21.202 115.098 20.9028L115.363 20.0956C115.376 20.0669 115.395 20.0428 115.419 20.0259C115.443 20.009 115.47 20 115.498 20C115.526 20 115.554 20.009 115.578 20.0259C115.601 20.0428 115.621 20.0669 115.633 20.0956L115.899 20.9028C115.998 21.202 116.193 21.4468 116.446 21.5871Z" fill="#FFDD82"/>
<path d="M128.446 38.5871L128.915 38.8459C128.941 38.8589 128.962 38.8803 128.977 38.9067C128.992 38.9332 129 38.964 129 38.9955C129 39.027 128.992 39.0578 128.977 39.0843C128.962 39.1108 128.941 39.1317 128.915 39.1447L128.446 39.4035C128.193 39.5437 127.998 39.7883 127.899 40.0874L127.633 40.8946C127.623 40.9256 127.604 40.9523 127.58 40.9711C127.556 40.9899 127.527 41 127.498 41C127.469 41 127.441 40.9899 127.416 40.9711C127.392 40.9523 127.374 40.9256 127.363 40.8946L127.098 40.0874C126.999 39.7882 126.803 39.5433 126.551 39.4031L126.081 39.1442C126.057 39.1304 126.036 39.1091 126.022 39.0828C126.008 39.0564 126 39.0261 126 38.9951C126 38.9641 126.008 38.9337 126.022 38.9074C126.036 38.8811 126.057 38.8598 126.081 38.8459L126.551 38.5871C126.803 38.4468 126.999 38.202 127.098 37.9028L127.363 37.0956C127.376 37.0669 127.395 37.0428 127.419 37.0259C127.443 37.009 127.47 37 127.498 37C127.526 37 127.554 37.009 127.578 37.0259C127.601 37.0428 127.621 37.0669 127.633 37.0956L127.899 37.9028C127.998 38.202 128.193 38.4468 128.446 38.5871Z" fill="#FFDD82"/>
<path d="M90.4456 20.5871L90.9154 20.8459C90.9406 20.8589 90.962 20.8803 90.977 20.9067C90.992 20.9332 91 20.964 91 20.9955C91 21.027 90.992 21.0578 90.977 21.0843C90.962 21.1108 90.9406 21.1317 90.9154 21.1447L90.4456 21.4035C90.1934 21.5437 89.9978 21.7883 89.8987 22.0874L89.633 22.8946C89.6225 22.9256 89.604 22.9523 89.58 22.9711C89.5559 22.9899 89.5274 23 89.4982 23C89.469 23 89.4405 22.9899 89.4164 22.9711C89.3924 22.9523 89.3739 22.9256 89.3634 22.8946L89.0977 22.0874C88.9987 21.7882 88.8031 21.5433 88.5508 21.4031L88.081 21.1442C88.0567 21.1304 88.0362 21.1091 88.0219 21.0828C88.0076 21.0564 88 21.0261 88 20.9951C88 20.9641 88.0076 20.9337 88.0219 20.9074C88.0362 20.8811 88.0567 20.8598 88.081 20.8459L88.5508 20.5871C88.8031 20.4468 88.9987 20.202 89.0977 19.9028L89.3634 19.0956C89.3758 19.0669 89.395 19.0428 89.4188 19.0259C89.4426 19.009 89.4701 19 89.4982 19C89.5263 19 89.5538 19.009 89.5776 19.0259C89.6014 19.0428 89.6206 19.0669 89.633 19.0956L89.8987 19.9028C89.9977 20.202 90.1933 20.4468 90.4456 20.5871Z" fill="#FFDD82"/>
<path d="M105.446 55.5871L105.915 55.8459C105.941 55.8589 105.962 55.8803 105.977 55.9067C105.992 55.9332 106 55.964 106 55.9955C106 56.027 105.992 56.0578 105.977 56.0843C105.962 56.1108 105.941 56.1317 105.915 56.1447L105.446 56.4035C105.193 56.5437 104.998 56.7883 104.899 57.0874L104.633 57.8946C104.623 57.9256 104.604 57.9523 104.58 57.9711C104.556 57.9899 104.527 58 104.498 58C104.469 58 104.441 57.9899 104.416 57.9711C104.392 57.9523 104.374 57.9256 104.363 57.8946L104.098 57.0874C103.999 56.7882 103.803 56.5433 103.551 56.4031L103.081 56.1442C103.057 56.1304 103.036 56.1091 103.022 56.0828C103.008 56.0564 103 56.0261 103 55.9951C103 55.9641 103.008 55.9337 103.022 55.9074C103.036 55.8811 103.057 55.8598 103.081 55.8459L103.551 55.5871C103.803 55.4468 103.999 55.202 104.098 54.9028L104.363 54.0956C104.376 54.0669 104.395 54.0428 104.419 54.0259C104.443 54.009 104.47 54 104.498 54C104.526 54 104.554 54.009 104.578 54.0259C104.601 54.0428 104.621 54.0669 104.633 54.0956L104.899 54.9028C104.998 55.202 105.193 55.4468 105.446 55.5871Z" fill="#FFDD82"/>
<path d="M35.4456 50.5871L35.9154 50.8459C35.9406 50.8589 35.962 50.8803 35.977 50.9067C35.992 50.9332 36 50.964 36 50.9955C36 51.027 35.992 51.0578 35.977 51.0843C35.962 51.1108 35.9406 51.1317 35.9154 51.1447L35.4456 51.4035C35.1934 51.5437 34.9978 51.7883 34.8987 52.0874L34.633 52.8946C34.6225 52.9256 34.604 52.9523 34.58 52.9711C34.5559 52.9899 34.5274 53 34.4982 53C34.469 53 34.4405 52.9899 34.4164 52.9711C34.3924 52.9523 34.3739 52.9256 34.3634 52.8946L34.0977 52.0874C33.9987 51.7882 33.8031 51.5433 33.5508 51.4031L33.081 51.1442C33.0567 51.1304 33.0362 51.1091 33.0219 51.0828C33.0076 51.0564 33 51.0261 33 50.9951C33 50.9641 33.0076 50.9337 33.0219 50.9074C33.0362 50.8811 33.0567 50.8598 33.081 50.8459L33.5508 50.5871C33.8031 50.4468 33.9987 50.202 34.0977 49.9028L34.3634 49.0956C34.3758 49.0669 34.395 49.0428 34.4188 49.0259C34.4426 49.009 34.4701 49 34.4982 49C34.5263 49 34.5538 49.009 34.5776 49.0259C34.6014 49.0428 34.6206 49.0669 34.633 49.0956L34.8987 49.9028C34.9977 50.202 35.1933 50.4468 35.4456 50.5871Z" fill="#FFDD82"/>
<path d="M82.4456 26.5871L82.9154 26.8459C82.9406 26.8589 82.962 26.8803 82.977 26.9067C82.992 26.9332 83 26.964 83 26.9955C83 27.027 82.992 27.0578 82.977 27.0843C82.962 27.1108 82.9406 27.1317 82.9154 27.1447L82.4456 27.4035C82.1934 27.5437 81.9978 27.7883 81.8987 28.0874L81.633 28.8946C81.6225 28.9256 81.604 28.9523 81.58 28.9711C81.5559 28.9899 81.5274 29 81.4982 29C81.469 29 81.4405 28.9899 81.4164 28.9711C81.3924 28.9523 81.3739 28.9256 81.3634 28.8946L81.0977 28.0874C80.9987 27.7882 80.8031 27.5433 80.5508 27.4031L80.081 27.1442C80.0567 27.1304 80.0362 27.1091 80.0219 27.0828C80.0076 27.0564 80 27.0261 80 26.9951C80 26.9641 80.0076 26.9337 80.0219 26.9074C80.0362 26.8811 80.0567 26.8598 80.081 26.8459L80.5508 26.5871C80.8031 26.4468 80.9987 26.202 81.0977 25.9028L81.3634 25.0956C81.3758 25.0669 81.395 25.0428 81.4188 25.0259C81.4426 25.009 81.4701 25 81.4982 25C81.5263 25 81.5538 25.009 81.5776 25.0259C81.6014 25.0428 81.6206 25.0669 81.633 25.0956L81.8987 25.9028C81.9977 26.202 82.1933 26.4468 82.4456 26.5871Z" fill="#FFDD82"/>
<defs>
<filter id="filter0_d_5003_2834" x="20" y="3" width="100.703" height="80.0002" filterUnits="userSpaceOnUse" color-interpolation-filters="sRGB">
<feFlood flood-opacity="0" result="BackgroundImageFix"/>
<feColorMatrix in="SourceAlpha" type="matrix" values="0 0 0 0 0 0 0 0 0 0 0 0 0 0 0 0 0 0 127 0" result="hardAlpha"/>
<feOffset/>
<feGaussianBlur stdDeviation="7.5"/>
<feComposite in2="hardAlpha" operator="out"/>
<feColorMatrix type="matrix" values="0 0 0 0 0.956863 0 0 0 0 0.764706 0 0 0 0 0.298039 0 0 0 1 0"/>
<feBlend mode="normal" in2="BackgroundImageFix" result="effect1_dropShadow_5003_2834"/>
<feBlend mode="normal" in="SourceGraphic" in2="effect1_dropShadow_5003_2834" result="shape"/>
</filter>
<linearGradient id="paint0_linear_5003_2834" x1="35" y1="37.8181" x2="105.702" y2="37.8181" gradientUnits="userSpaceOnUse">
<stop stop-color="#FFE073"/>
<stop offset="0.36" stop-color="#F1BE43"/>
<stop offset="0.74" stop-color="#FFE37E"/>
<stop offset="1" stop-color="#F1BE43"/>
</linearGradient>
<linearGradient id="paint1_linear_5003_2834" x1="46.7423" y1="64.5975" x2="93.9641" y2="64.5975" gradientUnits="userSpaceOnUse">
<stop stop-color="#FFE073"/>
<stop offset="0.36" stop-color="#EFBD44"/>
<stop offset="0.74" stop-color="#FFE37E"/>
<stop offset="1" stop-color="#EFBD44"/>
</linearGradient>
</defs>
</svg>
