<svg width="141" height="44" viewBox="0 0 141 44" fill="none" xmlns="http://www.w3.org/2000/svg">
<g clip-path="url(#clip0_1485_6976)">
<g clip-path="url(#clip1_1485_6976)">
<path fill-rule="evenodd" clip-rule="evenodd" d="M28.1735 2.47839H40.9924C41.7668 2.47839 42.842 2.30419 42.842 2.30419V2.44276C42.842 3.92346 41.7828 3.97888 40.9964 3.97888C39.3555 3.95117 39.0866 3.85615 37.1889 3.85615H35.8528V23.418H33.3853V3.85615H32.0493C30.1475 3.85615 29.8185 3.96305 28.1775 3.99076C27.3911 3.99076 26.3279 3.9195 26.3279 2.4388V2.30023C26.3279 2.30023 27.3992 2.47443 28.1775 2.47443L28.1735 2.47839ZM0.308938 20.0726V3.67799C0.308938 2.06269 0.00401218 0 0.00401218 0H0.140426C2.73631 0 2.82859 1.86869 2.82859 3.67799V21.87L7.81572 21.8779C9.63725 21.8779 10.3354 21.7948 11.9081 21.7631C12.8109 21.7631 13.3244 22.5035 13.3244 23.2794V23.3943H0C0 23.3943 0.308938 21.6839 0.308938 20.0726ZM59.8176 23.6001L59.7935 23.4695C59.7935 23.3388 60.1907 21.4701 61.7234 21.4503C62.3653 21.4424 62.9912 21.6404 63.6091 21.8027C64.2831 21.9809 65.0414 22.159 65.9963 22.163C68.7527 22.1749 70.9915 21.0465 70.9795 18.2079C70.9754 16.9607 70.5943 15.6146 68.4959 14.4388C66.9994 13.5995 65.3143 12.6532 62.6903 11.1409C60.8246 10.064 59.7895 8.13197 59.8136 5.99406C59.8457 2.80699 62.4536 0.150445 66.225 0.142527C67.2602 0.142527 68.3274 0.201914 69.3264 0.233586C70.2733 0.2613 71.1761 0.273177 72.1149 0.110855V0.249423C72.1149 0.661168 71.8661 2.07456 70.4218 2.07456C69.836 2.07456 69.2663 1.92412 68.6965 1.81326C68.0425 1.68261 67.3123 1.55196 66.534 1.548C63.926 1.52821 61.8999 2.66447 61.92 5.18245C61.928 6.23161 62.4456 7.76377 64.1347 8.71396C66.4778 10.0363 67.8339 10.7925 69.5912 11.8535C71.8862 13.2392 73.142 14.4665 73.13 17.4517C73.118 21.189 70.5461 23.5724 65.7115 23.5883C64.8248 23.5883 63.8057 23.5249 62.7906 23.4893C61.7876 23.4536 60.8126 23.4497 59.8176 23.6001ZM44.1821 16.8895C44.1741 12.0871 44.158 9.23656 44.1821 5.5744C44.1941 4.10953 43.9013 2.20917 43.9013 2.20917H44.0417C46.5132 2.20917 46.6255 4.10162 46.6255 5.55856C46.6255 9.72748 46.6536 14.0666 46.6456 16.8895C46.6416 19.6648 48.7038 22.3055 51.729 22.3055C54.5375 22.3055 56.5757 20.0409 56.5757 17.2577V5.55856C56.5757 4.15704 56.7643 2.20917 58.2127 2.20917H58.3531C58.3531 2.20917 58.0763 4.10953 58.0723 5.5744C58.0723 9.74332 58.0923 13.8133 58.0723 17.2695C58.0522 20.7773 55.5887 23.711 51.6969 23.711C46.786 23.711 44.1861 20.4527 44.1821 16.8895ZM19.8402 3.57506C16.2493 3.57506 13.6534 7.58958 13.6534 12.9621C13.6534 18.3345 16.2493 22.3491 19.8402 22.3491C23.4311 22.3491 26.027 18.3345 26.027 12.9621C26.027 7.58958 23.4311 3.57506 19.8402 3.57506ZM19.8402 23.7229C14.6605 23.7229 11.0656 18.8809 11.0656 12.9621C11.0656 7.04322 14.6605 2.20125 19.8402 2.20125C25.0199 2.20125 28.6149 7.04322 28.6149 12.9621C28.6149 18.8809 25.0199 23.7229 19.8402 23.7229ZM134.247 22.3055C136.735 22.3055 139.098 20.805 139.098 18.4929C139.098 17.6298 138.641 16.2521 137.365 15.5394L131.463 12.2494C129.886 11.3665 129.012 9.60079 129.012 7.8192C129.012 4.90927 131.535 2.36754 134.721 2.36754C136.53 2.36754 138.364 2.45859 140.169 2.48631V2.60112C140.169 3.40878 139.724 4.20059 138.745 4.20059C137.546 3.96305 136.342 3.66612 135.11 3.66612C132.763 3.66612 130.941 4.99637 130.941 7.07885C130.941 7.88651 131.347 9.14154 132.39 9.7354L138.392 13.0848C140.069 14.0271 141 15.6661 141 17.6021C141 20.809 138.139 23.6476 134.693 23.6476C134.552 23.6476 134.424 23.6397 134.288 23.6397C132.514 23.6278 130.733 23.5487 128.959 23.521V23.4061C128.959 23.2874 129.224 21.7671 130.612 21.7671C131.836 22.0046 132.988 22.3016 134.243 22.3016L134.247 22.3055ZM99.807 5.59815V23.5051H97.3475V5.59815C97.3475 4.13329 97.4799 2.22105 99.9474 2.22105H100.088C100.088 2.22105 99.811 4.12537 99.811 5.59815H99.807ZM118.977 22.0798H126.652C128.045 22.0798 128.073 23.2676 128.073 23.3824V23.4972H116.233C116.233 23.4972 116.514 21.9175 116.514 20.4447V5.59023C116.514 4.11745 116.233 2.51006 116.233 2.51006H128.073V2.62488C128.073 2.73969 128.045 3.92742 126.652 3.92742H118.977V12.293H125.734V13.7103H118.977V22.0759V22.0798ZM103.755 20.4566V5.59815C103.755 4.12141 103.474 2.22105 103.474 2.22105H103.615C106.094 2.22105 106.226 4.13329 106.226 5.59815V22.0878H110.367C112.036 22.0917 112.674 22.0165 114.11 21.9888C114.945 21.9888 115.418 22.6697 115.418 23.3903V23.5051H103.466C103.466 23.5051 103.751 21.9254 103.751 20.4527L103.755 20.4566ZM75.4129 23.6714C76.8092 23.6714 77.0098 21.7869 77.0098 20.3458L77.0017 7.01155L84.0792 24L91.1166 6.73045L91.1848 20.3497C91.1848 21.8225 91.6101 23.6714 93.6683 23.6674H93.7566C93.7285 23.4457 93.5239 21.7196 93.5239 20.3418L93.5038 5.59023C93.5038 4.21247 93.7165 2.48631 93.7446 2.26064H93.6563C92.1116 2.26064 91.1407 3.18311 90.8036 3.94721L84.5607 19.1541L78.3819 3.94721C78.0449 3.16727 77.106 2.26064 75.4009 2.26064H75.3126C75.3447 2.48631 75.5854 4.20851 75.5854 5.58628L75.6055 20.3458C75.6055 21.7196 75.3648 23.4457 75.3327 23.6714H75.4209H75.4129Z" fill="#006885"/>
</g>
<path d="M3.15196 32.647C3.95936 32.647 4.61537 32.9213 5.1491 33.4544C5.68284 33.9895 5.95456 34.6491 5.95456 35.4448C5.95456 36.2406 5.6809 36.9002 5.1491 37.4352C4.61537 37.9703 3.95742 38.2427 3.15196 38.2427H1.15287V41.3518H0V32.647H3.15196ZM3.15196 37.1609C3.63523 37.1609 4.03311 36.9994 4.34365 36.6764C4.65418 36.3398 4.81528 35.9312 4.81528 35.4448C4.81528 34.4506 4.1088 33.7288 3.15196 33.7288H1.15287V37.1609H3.15002H3.15196Z" fill="#006885"/>
<path d="M10.2225 41.5152C9.31613 41.5152 8.53591 41.2039 7.90319 40.5696C7.27046 39.9354 6.95993 39.1649 6.95993 38.2446C6.95993 37.3243 7.27046 36.5538 7.90319 35.9195C8.53591 35.2852 9.31807 34.9739 10.2225 34.9739C11.127 34.9739 11.9091 35.2852 12.5418 35.9195C13.1746 36.5538 13.4967 37.3243 13.4967 38.2446C13.4967 39.1649 13.1746 39.9354 12.5418 40.5696C11.9091 41.2039 11.127 41.5152 10.2225 41.5152ZM11.7849 39.8245C12.2061 39.4023 12.4176 38.8789 12.4176 38.2446C12.4176 37.6103 12.2061 37.0889 11.7849 36.6647C11.3637 36.2425 10.8416 36.0304 10.2225 36.0304C9.60338 36.0304 9.09293 36.2425 8.67177 36.6647C8.2506 37.0869 8.03904 37.6103 8.03904 38.2446C8.03904 38.8789 8.2506 39.4003 8.67177 39.8245C9.09293 40.2467 9.61502 40.4587 10.2225 40.4587C10.83 40.4587 11.3637 40.2467 11.7849 39.8245Z" fill="#006885"/>
<path d="M21.9317 35.1354H23.0613L21.1379 41.3538H20.0336L18.5818 36.7523L17.13 41.3538H16.0257L14.1023 35.1354H15.2319L16.5963 39.8614L18.0597 35.1354H19.102L20.5654 39.8731L21.9298 35.1354H21.9317Z" fill="#006885"/>
<path d="M25.0332 38.7408C25.2448 39.8479 26.1007 40.4938 27.2788 40.4938C28.0978 40.4938 28.6937 40.1961 29.0644 39.5852L29.9824 40.1066C29.3749 41.0386 28.4685 41.5114 27.2536 41.5114C26.2734 41.5114 25.466 41.2001 24.8469 40.5911C24.2394 39.9685 23.9289 39.1863 23.9289 38.2407C23.9289 37.2952 24.2258 36.5247 24.8353 35.9021C25.4427 35.2795 26.2249 34.9701 27.1798 34.9701C28.0862 34.9701 28.8295 35.2931 29.4002 35.941C29.9824 36.5753 30.2677 37.3457 30.2677 38.2544C30.2677 38.4159 30.2561 38.5773 30.2308 38.7388H25.0332V38.7408ZM25.0332 37.7952H29.177C28.9906 36.6142 28.1716 35.9916 27.1798 35.9916C26.0269 35.9916 25.2195 36.6998 25.0332 37.7952Z" fill="#006885"/>
<path d="M32.686 36.1803C33.0451 35.4098 33.6914 35.0245 34.6211 35.0245V36.1569C34.0873 36.1316 33.6409 36.2698 33.2567 36.5791C32.8724 36.8885 32.686 37.3749 32.686 38.0598V41.3557H31.6069V35.1374H32.686V36.1822V36.1803Z" fill="#006885"/>
<path d="M36.5309 38.7408C36.7424 39.8479 37.5984 40.4938 38.7765 40.4938C39.5955 40.4938 40.1913 40.1961 40.5621 39.5852L41.4801 40.1066C40.8726 41.0386 39.9662 41.5114 38.7512 41.5114C37.7711 41.5114 36.9637 41.2001 36.3446 40.5911C35.7371 39.9685 35.4265 39.1863 35.4265 38.2407C35.4265 37.2952 35.7235 36.5247 36.3329 35.9021C36.9404 35.2795 37.7226 34.9701 38.6775 34.9701C39.5839 34.9701 40.3272 35.2931 40.8978 35.941C41.4801 36.5753 41.7654 37.3457 41.7654 38.2544C41.7654 38.4159 41.7537 38.5773 41.7285 38.7388H36.5309V38.7408ZM36.5309 37.7952H40.6746C40.4883 36.6142 39.6693 35.9916 38.6775 35.9916C37.5246 35.9916 36.7172 36.6998 36.5309 37.7952Z" fill="#006885"/>
<path d="M48.242 32.647H49.3212V41.3518H48.242V40.2817C47.7083 41.1028 46.9261 41.5133 45.8975 41.5133C45.0299 41.5133 44.2846 41.202 43.6771 40.5677C43.0696 39.9335 42.7591 39.1494 42.7591 38.2427C42.7591 37.336 43.0696 36.5636 43.6771 35.9293C44.2846 35.295 45.0299 34.972 45.8975 34.972C46.9261 34.972 47.7083 35.3826 48.242 36.2036V32.647ZM47.6093 39.8342C48.0305 39.3984 48.242 38.877 48.242 38.2427C48.242 37.6084 48.0305 37.087 47.6093 36.6628C47.1882 36.227 46.6661 36.0169 46.0333 36.0169C45.4006 36.0169 44.8921 36.2289 44.4709 36.6628C44.0498 37.085 43.8382 37.6084 43.8382 38.2427C43.8382 38.877 44.0498 39.3984 44.4709 39.8342C44.8921 40.2564 45.4142 40.4685 46.0333 40.4685C46.6525 40.4685 47.1862 40.2564 47.6093 39.8342Z" fill="#006885"/>
<path d="M59.9008 35.9313C60.5083 36.5655 60.8188 37.336 60.8188 38.2446C60.8188 39.1533 60.5083 39.9354 59.9008 40.5697C59.2933 41.204 58.548 41.5153 57.6804 41.5153C56.6498 41.5153 55.8696 41.1048 55.3359 40.2837V41.3538H54.2568V32.6489H55.3359V36.2056C55.8696 35.3845 56.6518 34.974 57.6804 34.974C58.548 34.974 59.2933 35.297 59.9008 35.9313ZM59.107 39.8362C59.5281 39.4004 59.7397 38.8789 59.7397 38.2446C59.7397 37.6104 59.5281 37.0889 59.107 36.6648C58.6858 36.2289 58.1637 36.0188 57.5446 36.0188C56.9254 36.0188 56.3917 36.2309 55.9686 36.6648C55.5474 37.087 55.3359 37.6104 55.3359 38.2446C55.3359 38.8789 55.5474 39.4004 55.9686 39.8362C56.3898 40.2584 56.9119 40.4705 57.5446 40.4705C58.1773 40.4705 58.6858 40.2584 59.107 39.8362Z" fill="#006885"/>
<path d="M66.2901 35.1354H67.443L64.9121 41.739C64.3784 43.1438 63.3982 43.9279 62.158 43.8403V42.8325C62.915 42.8947 63.4739 42.4725 63.833 41.5639L63.9455 41.3285L61.2419 35.1354H62.3948L64.5045 40.0113L66.2901 35.1354Z" fill="#006885"/>
<path d="M80.158 31.3401H81.8993V41.6519H80.158V31.3401Z" fill="#158BC8"/>
<path d="M89.5936 37.4299C89.5936 36.8778 89.5233 35.541 87.8874 35.541C86.3945 35.541 85.9867 37.0376 85.9867 37.5709V41.6496H84.2454V34.0984H85.9867V34.8643C86.7695 33.9034 88.1898 33.9034 88.2976 33.9034C91.335 33.9034 91.335 36.61 91.335 36.7345V41.6496H89.5936V37.4276V37.4299Z" fill="#158BC8"/>
<path d="M92.863 34.1007H94.4802V33.6378C94.4802 30.7527 96.6129 30.647 97.002 30.647C97.391 30.647 97.8012 30.6822 98.2629 30.7527V32.3386C97.8551 32.3033 97.7473 32.3033 97.7473 32.3033C96.2192 32.3221 96.2192 33.6402 96.2192 33.6402V34.103H98.2793V35.7406H96.2192V41.6542H94.4778V35.7406H92.8607V34.103L92.863 34.1007Z" fill="#0061A5"/>
<path d="M101.146 31.3401C101.715 31.3401 102.193 31.8217 102.193 32.3903C102.193 32.9589 101.713 33.4053 101.146 33.4053C100.578 33.4053 100.133 32.9424 100.133 32.3903C100.133 31.8382 100.595 31.3401 101.146 31.3401ZM100.276 34.1007H102.017V41.6519H100.276V34.1007Z" fill="#0061A5"/>
<path d="M114.755 35.8816V37.5379C114.045 41.6871 110.117 41.8469 109.639 41.8469C106.583 41.8469 104.185 39.4598 104.185 36.5042C104.185 33.5486 106.531 31.1615 109.639 31.1615C112.482 31.1615 113.921 32.8367 114.364 33.4781L113.03 34.4038C112.266 33.2807 111.005 32.8014 109.637 32.8014C107.593 32.8014 105.924 34.4038 105.924 36.5065C105.924 38.6093 107.595 40.2116 109.637 40.2116C112.693 40.2116 112.976 37.4863 112.976 37.4863H110.471V35.8839H114.753L114.755 35.8816Z" fill="#A5CA49"/>
<path d="M123.071 40.886C122.023 41.8469 120.957 41.8469 120.333 41.8469C118.219 41.8469 116.459 40.066 116.459 37.8739C116.459 35.6819 118.217 33.901 120.333 33.901C120.954 33.901 122.021 33.901 123.071 34.8619V34.096H124.812V41.6472H123.071V40.8813V40.886ZM123.071 37.8763C123.071 36.5042 121.969 35.5433 120.619 35.5433C119.269 35.5433 118.203 36.5042 118.203 37.8763C118.203 39.2484 119.286 40.2093 120.619 40.2093C121.953 40.2093 123.071 39.2484 123.071 37.8763Z" fill="#A5CA49"/>
<path d="M126.521 34.1007H128.138V31.4834C128.813 31.3236 129.239 31.1639 129.879 31.0018V34.1007H131.939V35.7383H129.879V38.7832C129.879 39.1027 129.898 40.1012 131.248 40.1012C131.248 40.1012 131.693 40.1012 131.923 40.0825V41.5955C131.923 41.5955 131.407 41.6495 130.662 41.6495C130.27 41.6495 128.14 41.6495 128.14 38.7456V35.7359H126.523V34.0984L126.521 34.1007Z" fill="#A5CA49"/>
<path d="M141.321 38.6234H135.316C135.689 39.8874 136.737 40.2093 137.573 40.2093C137.573 40.2093 138.567 40.2093 139.458 39.7817L140.435 41.1702C140.435 41.1702 139.066 41.8469 137.557 41.8469C135.284 41.8469 133.577 40.261 133.577 37.8739C133.577 35.6842 135.176 33.901 137.451 33.901C139.425 33.901 141.325 35.3083 141.325 38.0337V38.6211L141.321 38.6234ZM135.333 37.1268H139.561C139.242 36.0038 138.281 35.5409 137.447 35.5409C136.612 35.5409 135.651 36.0038 135.333 37.1268Z" fill="#A5CA49"/>
<path d="M75.1238 37.9303C75.2878 38.2216 75.4496 38.5153 75.6136 38.8066C75.3933 39.145 75.2363 39.4363 75.1355 39.6383C74.6972 40.51 74.4301 40.8789 74.0434 41.5297C73.9918 41.6142 73.877 41.7176 73.7902 41.7176C72.9793 41.7317 72.1684 41.7247 71.3599 41.7223C71.3388 41.7223 71.3153 41.7082 71.2567 41.6894C71.9106 40.5523 72.5551 39.4269 73.2207 38.271C73.0918 38.271 73.0121 38.271 72.9301 38.271C72.1942 38.2874 71.5286 37.8363 71.2802 37.1503C71.0271 36.4501 71.2474 35.6607 71.8239 35.2026C72.3934 34.7515 73.2114 34.6998 73.816 35.1156C74.8238 35.804 75.8152 36.5159 76.8159 37.2137C77.3714 37.599 78.0792 37.3241 78.1706 36.6921C78.2198 36.3468 78.1073 36.0601 77.8143 35.8651C77.5261 35.6725 77.2167 35.6537 76.9167 35.8346C76.7245 35.9497 76.5511 36.1024 76.3566 36.2128C76.2839 36.2528 76.148 36.2551 76.0777 36.2128C75.6839 35.9849 75.3722 35.6842 75.1496 35.266C74.6691 34.3661 74.1394 33.4921 73.6285 32.6088C73.3942 32.2023 73.3074 32.1671 72.7684 32.2869C73.2653 33.1538 73.7598 34.0114 74.2285 34.8313C73.8512 34.7068 73.4528 34.58 73.059 34.4437C73.0098 34.4272 72.9629 34.3779 72.9371 34.3333C72.3934 33.3911 71.8497 32.449 71.3083 31.5045C71.2919 31.4787 71.2895 31.4434 71.2708 31.38C71.5731 31.38 71.8544 31.38 72.1333 31.38C72.6512 31.38 73.1692 31.3894 73.6871 31.3753C73.8723 31.3706 73.9707 31.4411 74.0598 31.5985C74.709 32.7403 75.3652 33.8775 76.0214 35.017C76.0659 35.0945 76.1175 35.1697 76.1784 35.2683C76.2698 35.2096 76.3448 35.1603 76.4198 35.1109C77.1417 34.6481 78.0815 34.7867 78.6463 35.4399C79.1947 36.0742 79.1971 37.0398 78.6463 37.6765C78.0862 38.3273 77.1323 38.4824 76.4222 38.0008C75.4683 37.3547 74.5308 36.6804 73.5863 36.0178C73.4903 35.9497 73.3965 35.8792 73.2957 35.8205C72.9442 35.6231 72.5059 35.7053 72.2504 36.0108C71.9856 36.3256 71.9833 36.7814 72.2458 37.0962C72.5036 37.4064 72.9371 37.4956 73.2887 37.2936C73.4973 37.1738 73.6848 37.0163 73.891 36.8895C73.9449 36.8566 74.0199 36.8519 74.1066 36.866C74.1934 36.8777 74.2637 36.9177 74.4676 37.0915C74.5426 37.1573 74.641 37.2442 74.7488 37.3523C74.0902 38.5036 73.434 39.6548 72.7754 40.8084C72.9981 40.8906 73.1645 40.9094 73.3004 40.8554C73.4856 40.7825 73.5746 40.6087 73.6098 40.5429C73.8066 40.174 74.3644 39.2248 75.1261 37.9326L75.1238 37.9303Z" fill="#0061A5"/>
</g>
<defs>
<clipPath id="clip0_1485_6976">
<rect width="141" height="44" fill="white"/>
</clipPath>
<clipPath id="clip1_1485_6976">
<rect width="141" height="24" fill="white"/>
</clipPath>
</defs>
</svg>
