<svg width="80" height="80" viewBox="0 0 80 80" fill="none" xmlns="http://www.w3.org/2000/svg">
<path d="M67.2334 58.5697C65.4667 60.203 63.4334 61.4363 61.2334 62.2697C59.0334 63.103 56.6667 61.503 56.6667 59.1363V54.7363C56.6667 48.2363 51.4001 42.9697 44.9001 42.9697H35.1001C28.6001 42.9697 23.3334 48.2363 23.3334 54.7363V60.003C23.3334 61.8363 21.8334 63.3363 20.0001 63.3363H18.5001C10.3334 62.103 6.66675 55.4697 6.66675 49.5363C6.66675 43.9363 9.93341 37.7363 17.0334 36.003C15.0667 28.2364 16.7334 20.9364 21.8001 15.6364C27.5667 9.60302 36.7667 7.20302 44.7001 9.66969C52.0001 11.903 57.1334 17.903 58.9667 26.2364C65.3334 27.6697 70.4334 32.4697 72.4667 39.1363C74.6667 46.3697 72.6667 53.803 67.2334 58.5697Z" fill="url(#paint0_linear_3131_2718)"/>
<path d="M44.8999 47.9687H35.0999C30.8666 47.9687 28.3333 50.502 28.3333 54.7353V64.5353C28.3333 68.7687 30.8666 71.302 35.0999 71.302H44.8999C49.1333 71.302 51.6666 68.7687 51.6666 64.5353V54.7353C51.6666 50.502 49.1333 47.9687 44.8999 47.9687ZM46.5666 63.1353C47.3999 63.9687 47.3999 65.3353 46.5666 66.1687C46.1333 66.5687 45.5999 66.7687 45.0333 66.7687C44.4999 66.7687 43.9666 66.5687 43.5333 66.1687L39.9999 62.6353L36.4999 66.1687C36.0666 66.5687 35.5333 66.7687 34.9666 66.7687C34.4333 66.7687 33.8999 66.5687 33.4666 66.1687C32.6333 65.3353 32.6333 63.9687 33.4666 63.1353L36.9999 59.602L33.4666 56.102C32.6333 55.2687 32.6333 53.902 33.4666 53.0687C34.2999 52.2353 35.6666 52.2353 36.4999 53.0687L39.9999 56.602L43.5333 53.0687C44.3666 52.2353 45.7333 52.2353 46.5666 53.0687C47.3999 53.902 47.3999 55.2687 46.5666 56.102L43.0333 59.602L46.5666 63.1353Z" fill="url(#paint1_linear_3131_2718)"/>
<defs>
<linearGradient id="paint0_linear_3131_2718" x1="40.006" y1="8.71091" x2="40.006" y2="63.3363" gradientUnits="userSpaceOnUse">
<stop stop-color="#FFE0D7"/>
<stop offset="1" stop-color="#FE592A"/>
</linearGradient>
<linearGradient id="paint1_linear_3131_2718" x1="39.9999" y1="47.9687" x2="39.9999" y2="71.302" gradientUnits="userSpaceOnUse">
<stop stop-color="#FFE0D7"/>
<stop offset="1" stop-color="#FE592A"/>
</linearGradient>
</defs>
</svg>
