<svg width="20" height="20" viewBox="0 0 20 20" fill="none" xmlns="http://www.w3.org/2000/svg">
<path d="M14.25 1.6665H10.75C8.18081 1.6665 6.97586 2.57824 6.72483 4.78235C6.67232 5.24346 7.05421 5.62484 7.5183 5.62484H9.25005C12.75 5.62484 14.375 7.24984 14.375 10.7498V12.4816C14.375 12.9457 14.7564 13.3276 15.2175 13.2751C17.4216 13.024 18.3334 11.8191 18.3334 9.24984V5.74984C18.3334 2.83317 17.1667 1.6665 14.25 1.6665Z" fill="#2F87A0"/>
<path d="M9.25008 6.6665H5.75008C2.83341 6.6665 1.66675 7.83317 1.66675 10.7498V14.2498C1.66675 17.1665 2.83341 18.3332 5.75008 18.3332H9.25008C12.1667 18.3332 13.3334 17.1665 13.3334 14.2498V10.7498C13.3334 7.83317 12.1667 6.6665 9.25008 6.6665ZM10.2417 11.3748L7.15008 14.4665C7.03341 14.5832 6.88341 14.6415 6.72508 14.6415C6.56675 14.6415 6.41675 14.5832 6.30008 14.4665L4.75008 12.9165C4.51675 12.6832 4.51675 12.3082 4.75008 12.0748C4.98341 11.8415 5.35841 11.8415 5.59175 12.0748L6.71675 13.1998L9.39175 10.5248C9.62508 10.2915 10.0001 10.2915 10.2334 10.5248C10.4667 10.7582 10.4751 11.1415 10.2417 11.3748Z" fill="#2F87A0"/>
</svg>
