<svg width="20" height="20" viewBox="0 0 20 20" fill="none" xmlns="http://www.w3.org/2000/svg">
<path d="M13.3333 14.1667L7.49998 14.1667" stroke="white" stroke-width="1.25" stroke-linecap="round" stroke-linejoin="round"/>
<path d="M13.3333 10.8334L10.8333 10.8334" stroke="white" stroke-width="1.25" stroke-linecap="round" stroke-linejoin="round"/>
<path d="M17.0833 11.6667C17.0833 14.8094 17.0833 16.3808 16.046 17.3571C15.0087 18.3334 13.3391 18.3334 9.99998 18.3334H9.35604C6.63837 18.3334 5.27953 18.3334 4.33587 17.6685C4.0655 17.478 3.82546 17.2521 3.62306 16.9976C2.91665 16.1095 2.91665 14.8306 2.91665 12.2728V10.1516C2.91665 7.68225 2.91665 6.44759 3.30743 5.4615C3.93566 3.87623 5.26426 2.62578 6.94861 2.0345C7.99634 1.66671 9.30816 1.66671 11.9318 1.66671C13.431 1.66671 14.1806 1.66671 14.7793 1.87688C15.7418 2.21475 16.501 2.92929 16.86 3.83516C17.0833 4.39864 17.0833 5.10416 17.0833 6.51519V11.6667Z" stroke="white" stroke-width="1.25" stroke-linejoin="round"/>
<path d="M2.91667 10C2.91667 8.46588 4.16032 7.22222 5.69444 7.22222C6.24926 7.22222 6.90336 7.31944 7.4428 7.1749C7.9221 7.04647 8.29647 6.6721 8.4249 6.1928C8.56944 5.65336 8.47222 4.99926 8.47222 4.44444C8.47222 2.91032 9.71588 1.66667 11.25 1.66667" stroke="white" stroke-width="1.25" stroke-linecap="round" stroke-linejoin="round"/>
</svg>
