<svg width="20" height="21" viewBox="0 0 20 21" fill="none" xmlns="http://www.w3.org/2000/svg">
<g filter="url(#filter0_d_3060_7417)">
<path d="M12.0854 18.801C10.8419 19.733 9.1581 19.733 7.91462 18.801L1.96272 14.3398C0.719241 13.4077 0.198919 11.7556 0.673887 10.2475L2.94731 3.02913C3.42228 1.52105 4.7845 0.5 6.32153 0.5H13.6785C15.2155 0.5 16.5777 1.52105 17.0527 3.02913L19.3261 10.2475C19.8011 11.7556 19.2808 13.4077 18.0373 14.3398L12.0854 18.801Z" fill="url(#paint0_linear_3060_7417)"/>
<path d="M6.32129 1.5H13.6787C14.7619 1.50011 15.7495 2.22129 16.0986 3.3291L18.3721 10.5479C18.7226 11.6607 18.3334 12.8685 17.4375 13.54L11.4854 18.001C10.5974 18.6663 9.40256 18.6663 8.51465 18.001L2.5625 13.54C1.6666 12.8685 1.27744 11.6607 1.62793 10.5479L3.90137 3.3291C4.25048 2.22129 5.23809 1.50011 6.32129 1.5Z" stroke="white" stroke-opacity="0.4" stroke-width="2"/>
</g>
<path d="M8.91414 12.5C8.91414 12.7761 8.69028 13 8.41414 13H8C7.72386 13 7.5 12.7761 7.5 12.5V6.5C7.5 6.22386 7.72386 6 8 6H13C13.2761 6 13.5 6.22386 13.5 6.5V6.9C13.5 7.17614 13.2761 7.4 13 7.4H9.41414C9.138 7.4 8.91414 7.62386 8.91414 7.9V8.31C8.91414 8.58614 9.138 8.81 9.41414 8.81H12.6465C12.9226 8.81 13.1465 9.03386 13.1465 9.31V9.71C13.1465 9.98614 12.9226 10.21 12.6465 10.21H9.41414C9.138 10.21 8.91414 10.4339 8.91414 10.71V12.5Z" fill="white"/>
<path d="M13 5.5C13.5523 5.5 14 5.94772 14 6.5V6.90039C13.9998 7.4525 13.5522 7.90039 13 7.90039H9.41406V8.30957H12.6465C13.1986 8.30958 13.6463 8.75749 13.6465 9.30957V9.70996C13.6465 10.2622 13.1988 10.7099 12.6465 10.71H9.41406V12.5C9.41406 13.0523 8.96635 13.5 8.41406 13.5H8C7.44771 13.5 7 13.0523 7 12.5V6.5L7.00488 6.39746C7.05621 5.89333 7.48232 5.5 8 5.5H13Z" stroke="black" stroke-opacity="0.16"/>
<path d="M15.5776 1.07031C16.2591 1.5162 16.7914 2.19814 17.0532 3.0293L18.2622 6.87012L7.01022 18.123L2.16061 14.4873L15.5776 1.07031Z" fill="white" fill-opacity="0.32"/>
<defs>
<filter id="filter0_d_3060_7417" x="0.5" y="0.5" width="19" height="20" filterUnits="userSpaceOnUse" color-interpolation-filters="sRGB">
<feFlood flood-opacity="0" result="BackgroundImageFix"/>
<feColorMatrix in="SourceAlpha" type="matrix" values="0 0 0 0 0 0 0 0 0 0 0 0 0 0 0 0 0 0 127 0" result="hardAlpha"/>
<feOffset dy="1"/>
<feComposite in2="hardAlpha" operator="out"/>
<feColorMatrix type="matrix" values="0 0 0 0 0.300741 0 0 0 0 0.171852 0 0 0 0 0.0192593 0 0 0 1 0"/>
<feBlend mode="normal" in2="BackgroundImageFix" result="effect1_dropShadow_3060_7417"/>
<feBlend mode="normal" in="SourceGraphic" in2="effect1_dropShadow_3060_7417" result="shape"/>
</filter>
<linearGradient id="paint0_linear_3060_7417" x1="10.0002" y1="20.364" x2="10.0002" y2="-4.5" gradientUnits="userSpaceOnUse">
<stop stop-color="#FF7300"/>
<stop offset="1" stop-color="#F7F4CF"/>
</linearGradient>
</defs>
</svg>
