<svg width="87" height="20" viewBox="0 0 87 20" fill="none" xmlns="http://www.w3.org/2000/svg">
<g clip-path="url(#clip0_3064_4508)">
<path d="M4.94762 0.522348C6.71892 0.0786023 8.55479 0.00714566 10.374 0C11.4656 0.0342992 12.5623 0.042874 13.6438 0.207224C14.8907 0.385866 16.1644 0.637393 17.2619 1.27622C18.1048 1.76212 18.775 2.51313 19.1942 3.37847C19.8427 4.68255 20.0291 6.14456 20.1698 7.57298C20.333 9.64307 20.3134 11.7332 20.0052 13.7897C19.797 15.1567 19.4176 16.5629 18.5066 17.6484C17.7878 18.5166 16.7418 19.0532 15.6632 19.3555C14.2394 19.7478 12.7582 19.9078 11.2828 19.9421L10.1353 20L9.00233 19.9578C8.15657 19.8971 7.30646 19.88 6.46868 19.7385C4.95922 19.5127 3.3678 19.1511 2.21014 18.1057C1.07932 17.0931 0.579555 15.5961 0.327133 14.1527C0.142894 13.0644 0.0594788 11.9633 0 10.8628V9.74954C0.0979223 7.94598 0.116782 6.10597 0.678203 4.36814C0.96254 3.48494 1.40863 2.63246 2.08538 1.97792C2.86151 1.21691 3.89949 0.781736 4.94762 0.522348ZM6.19449 4.31455C5.82239 4.40673 5.628 4.78759 5.6425 5.14416C5.63452 8.3347 5.64323 11.5252 5.63815 14.7158C5.64178 14.9909 5.64831 15.3024 5.8514 15.5161C6.13574 15.8005 6.61592 15.8419 6.96337 15.6461C9.76757 14.1441 12.5689 12.6371 15.3731 11.1351C15.5726 11.0243 15.7873 10.9329 15.957 10.7785C16.266 10.487 16.3356 9.98678 16.1129 9.62521C15.9577 9.34581 15.6473 9.22005 15.3811 9.06856C12.5827 7.51367 9.78571 5.95663 6.98803 4.40173C6.75084 4.2631 6.45635 4.2288 6.19449 4.31455Z" fill="white"/>
<path d="M25.4149 15.659C25.4141 11.884 25.4141 8.10818 25.4149 4.33313H32.7039V6.36035C30.9993 6.36107 29.2948 6.36035 27.5902 6.36107C27.5909 7.275 27.5902 8.18893 27.5909 9.10286C29.1257 9.10215 30.6613 9.10286 32.1962 9.10286C32.1969 9.7817 32.1962 10.4605 32.1969 11.1394C30.6613 11.1401 29.1257 11.1387 27.5902 11.1401C27.5909 12.6464 27.5909 14.1527 27.5902 15.659H25.4149Z" fill="white"/>
<path d="M34.3635 4.33312H37.7204C38.2775 4.33741 38.8425 4.30025 39.3901 4.42816C40.3831 4.63467 41.3116 5.2199 41.8353 6.0881C42.3271 6.86483 42.4395 7.83235 42.2524 8.71913C42.0478 9.65307 41.416 10.4805 40.5746 10.9529C39.932 11.3187 39.187 11.5031 38.4457 11.4974C37.8103 11.4959 37.1749 11.4966 36.5395 11.4966V15.659H34.3635V4.33312ZM36.5395 6.36106C36.5395 7.39647 36.5395 8.43259 36.5395 9.46871C37.1764 9.46871 37.814 9.47014 38.4515 9.46871C38.8534 9.46657 39.277 9.38368 39.5925 9.12214C40.1561 8.66482 40.32 7.82378 39.9951 7.18353C39.7434 6.66975 39.1595 6.38464 38.5966 6.36678C37.9112 6.3532 37.225 6.36535 36.5395 6.36177V6.36106Z" fill="white"/>
<path d="M43.0945 4.33313H51.6899C51.6907 5.0084 51.69 5.68438 51.6907 6.36035C50.6201 6.36107 49.5502 6.36035 48.4803 6.36107C48.481 9.46014 48.481 12.5599 48.4803 15.659H46.3049C46.3042 12.5599 46.3049 9.46014 46.3042 6.36107C45.2343 6.36035 44.1644 6.36107 43.0945 6.36035V4.33313Z" fill="white"/>
<path d="M56.7587 15.659C56.7587 11.884 56.7587 8.1082 56.7587 4.33315H60.1302C60.6343 4.33958 61.1449 4.30314 61.6432 4.40175C62.6587 4.57968 63.6227 5.14633 64.1776 6.01524C64.7151 6.82056 64.8449 7.84667 64.6281 8.77704C64.4112 9.68382 63.7932 10.4813 62.9757 10.9457C62.3367 11.3123 61.5968 11.4995 60.8591 11.4974C60.2172 11.496 59.576 11.4967 58.9348 11.4967C58.9348 12.8844 58.9355 14.2713 58.9348 15.659H56.7587ZM58.9348 6.36037V9.46874C59.6217 9.46517 60.3086 9.47731 60.9955 9.46302C61.4706 9.4473 61.9573 9.2508 62.2322 8.85493C62.6362 8.33472 62.6558 7.56513 62.2881 7.02206C61.99 6.58975 61.451 6.37109 60.9324 6.36395C60.2665 6.35537 59.6007 6.36323 58.9348 6.36037Z" fill="white"/>
<path d="M66.0795 4.33313H68.1917C68.1924 8.10818 68.1924 11.884 68.1917 15.659H66.0795V4.33313Z" fill="white"/>
<path d="M69.6366 9.20222C70.3445 8.30115 71.4492 7.73735 72.6011 7.66804C73.7 7.5973 74.9092 7.72306 75.7919 8.43406C76.518 9.01143 76.8147 9.95823 76.8234 10.85C76.8241 12.4528 76.8234 14.0563 76.8234 15.659H74.7474C74.746 15.3754 74.7518 15.0917 74.7409 14.8087C74.5857 14.8616 74.4899 14.9945 74.3782 15.1024C73.9945 15.474 73.523 15.7862 72.9819 15.8648C72.0005 16.0306 70.9248 15.7712 70.2024 15.0788C69.3095 14.2285 69.1847 12.7057 69.9579 11.7425C70.4236 11.148 71.1518 10.8043 71.8924 10.6828C72.8513 10.5363 73.8444 10.6414 74.7518 10.9772C74.7677 10.6021 74.7032 10.199 74.4348 9.91392C73.972 9.38586 73.1923 9.2408 72.5235 9.38514C71.9824 9.4909 71.5203 9.82818 71.17 10.2362C70.6586 9.89177 70.1472 9.54807 69.6366 9.20222ZM71.7604 12.6686C71.4637 13.038 71.4993 13.6361 71.875 13.9405C72.4488 14.4364 73.3497 14.3707 73.9553 13.9634C74.4471 13.6511 74.7271 13.0909 74.7619 12.5235C74.1047 12.1977 73.3431 12.0469 72.6134 12.1791C72.2834 12.2384 71.965 12.402 71.7604 12.6686Z" fill="white"/>
<path d="M77.4899 7.90596C78.2907 7.90524 79.0922 7.90667 79.893 7.90596C80.5342 9.41655 81.1754 10.9271 81.8137 12.4392C81.8428 12.5192 81.8943 12.5828 81.969 12.63C82.6182 11.0579 83.2499 9.47943 83.8948 7.90596C84.6796 7.90596 85.4652 7.90524 86.25 7.90596C84.6063 11.6274 82.9649 15.3496 81.3212 19.0711H79.0458C79.6283 17.8048 80.2143 16.5401 80.7953 15.2731C79.6935 12.8179 78.591 10.3626 77.4899 7.90596Z" fill="white"/>
</g>
<defs>
<clipPath id="clip0_3064_4508">
<rect width="86.25" height="20" fill="white"/>
</clipPath>
</defs>
</svg>
