<svg width="20" height="20" viewBox="0 0 20 20" fill="none" xmlns="http://www.w3.org/2000/svg">
<circle cx="10" cy="10" r="10" fill="#E9B11A"/>
<circle cx="9.99997" cy="9.99997" r="8.63889" fill="#E9B11A" stroke="#EDF6F9" stroke-width="0.5"/>
<path d="M6.14801 14.4443C5.93731 14.4443 5.78368 14.4007 5.68711 14.3136C5.59932 14.2177 5.55542 14.0739 5.55542 13.8822V6.11751C5.55542 5.92579 5.59932 5.78636 5.68711 5.69921C5.78368 5.60335 5.9417 5.55542 6.16118 5.55542H7.13567C7.29369 5.55542 7.4166 5.57721 7.50439 5.62078C7.59218 5.65564 7.66242 5.72971 7.71509 5.843L9.99328 11.1763L12.2846 5.843C12.3373 5.72971 12.4075 5.65564 12.4953 5.62078C12.5831 5.57721 12.706 5.55542 12.8641 5.55542H13.8385C14.058 5.55542 14.2117 5.60335 14.2995 5.69921C14.396 5.78636 14.4443 5.92579 14.4443 6.11751V13.8822C14.4443 14.0739 14.396 14.2177 14.2995 14.3136C14.2117 14.4007 14.0624 14.4443 13.8517 14.4443H13.0484C12.8289 14.4443 12.6709 14.4007 12.5743 14.3136C12.4866 14.2177 12.4427 14.0739 12.4427 13.8822V8.94104L10.6781 12.8495C10.5903 13.0325 10.5025 13.1633 10.4147 13.2417C10.3357 13.3114 10.1952 13.3463 9.99328 13.3463C9.80014 13.3463 9.65528 13.3114 9.55871 13.2417C9.47092 13.1633 9.38752 13.0325 9.30851 12.8495L7.55707 8.94104V13.8822C7.55707 14.0739 7.50878 14.2177 7.41221 14.3136C7.32442 14.4007 7.17078 14.4443 6.9513 14.4443H6.14801Z" fill="white"/>
</svg>
