<svg width="20" height="21" viewBox="0 0 20 21" fill="none" xmlns="http://www.w3.org/2000/svg">
<g clip-path="url(#clip0_3529_13111)">
<path d="M19.5662 8.83893L18.2404 3.53562C18.1576 3.22074 18.0002 2.94726 17.7764 2.72351C17.5527 2.49976 17.2792 2.3423 16.9643 2.25949L11.661 0.93371C11.0644 0.78457 10.4264 0.958554 9.98716 1.39773L0.515814 10.8691C-0.171919 11.5568 -0.171958 12.6672 0.515814 13.355L7.14494 19.9841C7.83271 20.6719 8.94314 20.6719 9.63087 19.9841L19.1022 10.5128C19.5414 10.0736 19.7154 9.43549 19.5662 8.83893ZM12.9454 7.55452C12.2576 6.86675 12.2577 5.75632 12.9454 5.06859C13.6332 4.38081 14.7435 4.38081 15.4313 5.06859C16.1191 5.75636 16.1191 6.86671 15.4313 7.55452C14.7436 8.24225 13.6332 8.24229 12.9454 7.55452Z" fill="#FFD77B"/>
<path d="M19.1019 10.5129L9.63058 19.9842C8.94284 20.672 7.83245 20.672 7.14464 19.9842L3.83008 16.6697L12.9451 7.55464C13.6329 8.24241 14.7433 8.24237 15.431 7.55464C16.1188 6.86687 16.1188 5.75652 15.431 5.06871L17.7761 2.72363C17.9999 2.94738 18.1573 3.22086 18.2401 3.53574L19.5659 8.83905C19.7151 9.43561 19.5411 10.0737 19.1019 10.5129Z" fill="#FFB300"/>
<path d="M7.1449 10.0405C6.45951 9.35513 6.45951 8.24001 7.1449 7.55458C7.83029 6.86916 8.94541 6.86919 9.63083 7.55458C10.3163 8.23997 10.3162 9.35509 9.63083 10.0405C8.94544 10.7259 7.83029 10.7259 7.1449 10.0405ZM8.80216 8.38322C8.57357 8.15462 8.20213 8.15462 7.97353 8.38322C7.74494 8.61181 7.74494 8.98325 7.97353 9.21185C8.20213 9.44044 8.57357 9.44044 8.80216 9.21185C9.03076 8.98325 9.03076 8.61181 8.80216 8.38322Z" fill="#FFF8D9"/>
<path d="M7.97351 15.841C7.28813 15.1557 7.28813 14.0405 7.97351 13.3551C8.6589 12.6697 9.77402 12.6697 10.4594 13.3551C11.1448 14.0405 11.1448 15.1556 10.4594 15.841C9.77402 16.5264 8.6589 16.5264 7.97351 15.841ZM9.63078 14.1838C9.40218 13.9552 9.03074 13.9552 8.80215 14.1838C8.57355 14.4124 8.57355 14.7838 8.80215 15.0124C9.03074 15.241 9.40218 15.241 9.63078 15.0124C9.85941 14.7838 9.85941 14.4124 9.63078 14.1838Z" fill="#FFEB97"/>
<path d="M12.5971 11.8635L8.13898 12.3606L5.1393 12.6921C4.94867 12.717 4.78297 12.6507 4.65867 12.5264C4.56754 12.4353 4.50957 12.3109 4.49293 12.1784C4.45153 11.8551 4.69184 11.5651 5.00668 11.532L9.46476 11.0349L12.4644 10.7034C12.7877 10.662 13.0776 10.9022 13.1108 11.2171C13.1523 11.5403 12.9119 11.8303 12.5971 11.8635Z" fill="#FFF8D9"/>
<path d="M12.5972 11.8635L8.13916 12.3607L9.46498 11.0349L12.4647 10.7034C12.7879 10.662 13.0779 10.9022 13.111 11.2171C13.1525 11.5403 12.9121 11.8303 12.5972 11.8635Z" fill="#FFEB97"/>
<path d="M19.826 1.50265L15.4314 5.89729C15.1993 6.12933 14.8348 6.12933 14.6027 5.89729C14.3707 5.66526 14.3707 5.30069 14.6027 5.06866L18.9973 0.674023C19.2294 0.441992 19.5939 0.441992 19.826 0.674023C20.058 0.906054 20.058 1.27062 19.826 1.50265Z" fill="#3E5959"/>
<path d="M14.6025 5.8971L19.8258 0.673828C20.0578 0.905859 20.0578 1.27043 19.8258 1.50246L15.4312 5.8971C15.1991 6.12913 14.8346 6.12913 14.6025 5.8971Z" fill="#384949"/>
</g>
<defs>
<clipPath id="clip0_3529_13111">
<rect width="20" height="20" fill="white" transform="translate(0 0.5)"/>
</clipPath>
</defs>
</svg>
