<svg width="82" height="14" viewBox="0 0 82 14" fill="none" xmlns="http://www.w3.org/2000/svg">
<g clip-path="url(#clip0_3262_7952)">
<path fill-rule="evenodd" clip-rule="evenodd" d="M16.6842 1.44588H24.0498C24.4953 1.44588 25.1116 1.3442 25.1116 1.3442V1.42356C25.1116 2.28663 24.5028 2.32135 24.0523 2.32135C23.1093 2.30399 22.9559 2.24942 21.8644 2.24942H21.0971V13.6627H19.6814V2.24942H18.9142C17.8227 2.24942 17.6321 2.31143 16.6891 2.32879C16.2362 2.32879 15.6273 2.28663 15.6273 1.42356V1.3442C15.6273 1.3442 16.2436 1.44588 16.6891 1.44588M0.678202 11.7084V2.14526C0.678202 1.20283 0.502475 0 0.502475 0H0.581676C2.07164 0 2.12361 1.09123 2.12361 2.14526V12.7575H4.98969C6.03662 12.76 6.4351 12.7104 7.34096 12.6955C7.86071 12.6955 8.15524 13.127 8.15524 13.5809V13.6478H0.5C0.5 13.6478 0.678202 12.6508 0.678202 11.7109M34.8632 13.7669L34.8483 13.69C34.8483 13.6131 35.0785 12.5219 35.9571 12.512C36.3259 12.507 36.6873 12.6211 37.0387 12.7153C37.4248 12.8195 37.8604 12.9236 38.4124 12.9261C39.9939 12.9336 41.2834 12.2764 41.276 10.6197C41.2735 9.893 41.0532 9.10682 39.8479 8.41984C38.9866 7.92879 38.0213 7.37821 36.514 6.49531C35.4423 5.86785 34.8483 4.73942 34.8607 3.49194C34.878 1.63189 36.3779 0.0843224 38.5435 0.0793623C39.1376 0.0793623 39.7514 0.114083 40.3256 0.133924C40.8701 0.151284 41.3873 0.156244 41.9269 0.0620018V0.141364C41.9269 0.381931 41.7834 1.20531 40.9542 1.20531C40.6176 1.20531 40.2884 1.11851 39.9617 1.05155C39.588 0.977148 39.1673 0.900266 38.7193 0.895306C37.2219 0.885385 36.0562 1.54756 36.0685 3.01577C36.0735 3.62834 36.3705 4.52117 37.3407 5.0767C38.6871 5.85049 39.4667 6.28946 40.4765 6.90948C41.7933 7.71798 42.516 8.43472 42.511 10.1757C42.5036 12.3582 41.026 13.747 38.2515 13.757C37.7416 13.757 37.1551 13.7198 36.5734 13.6999C35.9992 13.6801 35.4374 13.6751 34.8657 13.7644M25.8838 9.84836C25.8789 7.04836 25.869 5.38423 25.8838 3.24889C25.8888 2.39327 25.7229 1.28468 25.7229 1.28468H25.8046C27.2253 1.28468 27.2896 2.39079 27.2896 3.23897C27.2896 5.66944 27.3045 8.20159 27.302 9.84836C27.2995 11.4678 28.4851 13.008 30.2225 13.008C31.8362 13.008 33.0069 11.6861 33.0069 10.0616V3.24145C33.0069 2.42551 33.1158 1.28716 33.9474 1.28716H34.0266C34.0266 1.28716 33.8682 2.39575 33.8658 3.25137C33.8658 5.68184 33.8781 8.05775 33.8658 10.074C33.8534 12.1201 32.4401 13.8314 30.2027 13.8314C27.3812 13.8314 25.8888 11.9291 25.8838 9.85332M11.8975 2.08574C9.83578 2.08574 8.34334 4.42941 8.34334 7.56174C8.34334 10.6941 9.83578 13.0377 11.8975 13.0377C13.9592 13.0377 15.4516 10.6941 15.4516 7.56174C15.4516 4.42941 13.9592 2.08574 11.8975 2.08574ZM11.8975 13.8388C8.9225 13.8388 6.85585 11.014 6.85585 7.56174C6.85585 4.10948 8.9225 1.28468 11.8975 1.28468C14.8724 1.28468 16.9391 4.10948 16.9391 7.56174C16.9391 11.014 14.8724 13.8388 11.8975 13.8388ZM77.6192 13.0129C79.0473 13.0129 80.4061 12.1375 80.4061 10.7908C80.4061 10.2873 80.1437 9.48379 79.4111 9.06714L76.0203 7.14756C75.1145 6.63171 74.612 5.60248 74.612 4.56333C74.612 2.86696 76.0599 1.3814 77.8914 1.3814C78.9309 1.3814 79.9828 1.43348 81.0223 1.45084V1.5178C81.0223 1.98902 80.7649 2.45031 80.2056 2.45031C79.515 2.31143 78.8245 2.13782 78.1167 2.13782C76.7678 2.13782 75.7233 2.91408 75.7233 4.12932C75.7233 4.60053 75.956 5.33215 76.5549 5.67936L80.0051 7.63366C80.9679 8.18175 81.5025 9.13906 81.5025 10.27C81.5025 12.1399 79.8591 13.7966 77.8791 13.7966C77.7974 13.7966 77.7256 13.7917 77.6464 13.7917C76.6267 13.7842 75.6045 13.7396 74.5848 13.7222V13.6553C74.5848 13.5858 74.7358 12.7004 75.5352 12.7004C76.2381 12.8393 76.8989 13.0129 77.6217 13.0129M57.8363 3.26625V13.7123H56.4231V3.26625C56.4231 2.41063 56.4998 1.2946 57.918 1.2946H57.9972C57.9972 1.2946 57.8363 2.40567 57.8363 3.26625ZM68.8477 12.879H73.2582C74.0576 12.879 74.075 13.5709 74.075 13.6379V13.7049H67.2736C67.2736 13.7049 67.4345 12.7848 67.4345 11.9242V3.26129C67.4345 2.40319 67.2736 1.46324 67.2736 1.46324H74.075V1.5302C74.075 1.59717 74.0601 2.28911 73.2582 2.28911H68.8477V7.16988H72.731V7.99823H68.8477V12.879ZM60.1035 11.9316V3.26625C60.1035 2.40567 59.9426 1.2946 59.9426 1.2946H60.0218C61.4474 1.2946 61.5241 2.41063 61.5241 3.26625V12.884H63.9026C64.8605 12.8864 65.2267 12.8418 66.0534 12.8269C66.5336 12.8269 66.8058 13.2262 66.8058 13.6429V13.7098H59.9401C59.9401 13.7098 60.1035 12.7897 60.1035 11.9291M43.8228 13.8066C44.6247 13.8066 44.741 12.7079 44.741 11.8671L44.736 4.08716L48.8025 13.9975L52.8467 3.92347L52.8863 11.8696C52.8863 12.7277 53.1313 13.8066 54.3119 13.8041H54.3614C54.3466 13.6751 54.2278 12.6682 54.2278 11.8647L54.2154 3.25881C54.2154 2.45527 54.3367 1.44588 54.3515 1.31692H54.302C53.4135 1.31692 52.8566 1.85509 52.6635 2.30151L49.0772 11.1727L45.5281 2.30151C45.3325 1.84517 44.7954 1.31692 43.8153 1.31692H43.7634C43.7807 1.44836 43.9193 2.45527 43.9193 3.25633L43.9292 11.8671C43.9292 12.6682 43.7906 13.6751 43.7733 13.8066H43.8252H43.8228Z" fill="#006884"/>
</g>
<defs>
<clipPath id="clip0_3262_7952">
<rect width="81" height="14" fill="white" transform="translate(0.5)"/>
</clipPath>
</defs>
</svg>
