<svg width="24" height="24" viewBox="0 0 24 24" fill="none" xmlns="http://www.w3.org/2000/svg">
<path fill-rule="evenodd" clip-rule="evenodd" d="M11.2933 2.53904C12.778 2.53904 14.1882 2.85774 15.4594 3.43032L14.7946 4.09439L15.278 6.33746L14.5661 7.04785C13.604 6.48905 12.4861 6.16889 11.2933 6.16889C7.68876 6.16889 4.76671 9.09094 4.76671 12.6955C4.76671 16.3 7.68876 19.2221 11.2933 19.2221C14.8979 19.2221 17.8199 16.3 17.8199 12.6955C17.8199 11.5076 17.5025 10.3939 16.9479 9.43449L17.6547 8.72916L19.9169 9.21666L20.573 8.56121C21.1365 9.82411 21.4498 11.2232 21.4498 12.6955C21.4498 18.3047 16.9026 22.8519 11.2934 22.8519C5.68411 22.8519 1.1369 18.3047 1.1369 12.6955C1.1369 7.08624 5.68411 2.53904 11.2933 2.53904ZM11.2933 10.9237C10.3145 10.9237 9.52157 11.7166 9.52157 12.6954C9.52157 13.6743 10.3145 14.4672 11.2933 14.4672C12.2722 14.4672 13.0651 13.6743 13.0651 12.6954C13.0651 12.4113 12.9982 12.143 12.8795 11.905L17.2934 7.50038L19.5547 7.98774L22.794 4.74849C22.8562 4.68624 22.878 4.60102 22.8531 4.5165C22.8282 4.43199 22.7638 4.37222 22.6777 4.35366L20.193 3.81821L19.6575 1.33364C19.6389 1.24754 19.5791 1.18313 19.4947 1.15819C19.4101 1.1333 19.325 1.155 19.2627 1.2173L16.0235 4.45655L16.507 6.70036L12.0871 11.1111C11.8484 10.9912 11.5787 10.9237 11.2933 10.9237ZM11.2933 7.29389C8.31009 7.29389 5.89172 9.71227 5.89172 12.6955C5.89172 15.6787 8.31009 18.0971 11.2933 18.0971C14.2765 18.0971 16.6949 15.6787 16.6949 12.6955C16.6949 11.8205 16.4866 10.9943 16.1173 10.2633L14.1517 12.2247C14.1768 12.378 14.19 12.5352 14.19 12.6955C14.19 14.2953 12.8931 15.5922 11.2933 15.5922C9.69351 15.5922 8.39657 14.2953 8.39657 12.6955C8.39657 11.0957 9.69347 9.79875 11.2933 9.79875C11.4557 9.79875 11.615 9.81235 11.7701 9.83804L13.7357 7.87655C13.0022 7.50404 12.1724 7.29389 11.2933 7.29389Z" fill="#CDD5DF"/>
</svg>
