<svg width="80" height="80" viewBox="0 0 80 80" fill="none" xmlns="http://www.w3.org/2000/svg">
<path fill-rule="evenodd" clip-rule="evenodd" d="M37.6444 8.46347C42.5933 8.46347 47.2939 9.52582 51.5313 11.4344L49.3153 13.648L50.9267 21.1249L48.5538 23.4928C45.3466 21.6302 41.6203 20.563 37.6444 20.563C25.6292 20.563 15.8891 30.3032 15.8891 42.3183C15.8891 54.3335 25.6292 64.0736 37.6444 64.0736C49.6595 64.0736 59.3997 54.3335 59.3997 42.3183C59.3997 38.3588 58.3416 34.6463 56.493 31.4483L58.8491 29.0972L66.3895 30.7222L68.5767 28.5374C70.4552 32.7471 71.4994 37.4108 71.4994 42.3183C71.4994 61.0158 56.342 76.1732 37.6445 76.1732C18.947 76.1732 3.7897 61.0158 3.7897 42.3183C3.7897 23.6208 18.947 8.46347 37.6444 8.46347ZM37.6444 36.4124C34.3816 36.4124 31.7386 39.0553 31.7386 42.3182C31.7386 45.5811 34.3816 48.2241 37.6444 48.2241C40.9074 48.2241 43.5503 45.5811 43.5503 42.3182C43.5503 41.3711 43.3274 40.4766 42.9316 39.6835L57.6445 25.0013L65.1825 26.6258L75.98 15.8283C76.1875 15.6208 76.26 15.3368 76.1769 15.055C76.0939 14.7733 75.8792 14.5741 75.5922 14.5122L67.3102 12.7274L65.525 4.4455C65.4631 4.15847 65.2638 3.94378 64.9822 3.86066C64.7005 3.77769 64.4166 3.85003 64.2091 4.05769L53.4116 14.8552L55.0235 22.3346L40.2903 37.0369C39.4945 36.6374 38.5958 36.4124 37.6444 36.4124ZM37.6444 24.313C27.7003 24.313 19.6391 32.3743 19.6391 42.3183C19.6391 52.2624 27.7003 60.3236 37.6444 60.3236C47.5885 60.3236 55.6497 52.2624 55.6497 42.3183C55.6497 39.4017 54.9555 36.6475 53.7244 34.211L47.1725 40.7491C47.2561 41.2599 47.3002 41.7839 47.3002 42.3183C47.3002 47.6511 42.977 51.9741 37.6444 51.9741C32.3117 51.9741 27.9886 47.651 27.9886 42.3183C27.9886 36.9857 32.3116 32.6625 37.6444 32.6625C38.1858 32.6625 38.7166 32.7078 39.2336 32.7935L45.7856 26.2552C43.3408 25.0135 40.5745 24.313 37.6444 24.313Z" fill="url(#paint0_linear_3129_3410)"/>
<defs>
<linearGradient id="paint0_linear_3129_3410" x1="40.0001" y1="3.82703" x2="40.0001" y2="76.1732" gradientUnits="userSpaceOnUse">
<stop stop-color="#FFE0D7"/>
<stop offset="1" stop-color="#FE592A"/>
</linearGradient>
</defs>
</svg>
