<svg width="80" height="80" viewBox="0 0 80 80" fill="none" xmlns="http://www.w3.org/2000/svg">
<path fill-rule="evenodd" clip-rule="evenodd" d="M43.1977 16.6553C43.204 18.4963 41.7167 19.9937 39.8757 20C34.8667 20.017 29.913 21.062 25.3216 23.0676C20.7309 25.073 16.5998 27.9978 13.1833 31.6616C11.9278 33.008 9.8185 33.0817 8.47213 31.8262C7.12573 30.5706 7.0521 28.4614 8.3076 27.115C12.3453 22.785 17.2275 19.3284 22.6529 16.9584C28.0777 14.5887 33.932 13.3535 39.853 13.3334C41.694 13.3271 43.1913 14.8144 43.1977 16.6553ZM50.9763 14.3096C52.278 13.0079 54.3887 13.0079 55.6903 14.3096L60 18.6192L64.3097 14.3096C65.6113 13.0079 67.722 13.0079 69.0237 14.3096C70.3253 15.6114 70.3253 17.7219 69.0237 19.0237L64.714 23.3333L69.0237 27.6429C70.3253 28.9446 70.3253 31.0552 69.0237 32.3569C67.722 33.6587 65.6113 33.6587 64.3097 32.3569L60 28.0473L55.6903 32.3569C54.3887 33.6587 52.278 33.6587 50.9763 32.3569C49.6747 31.0552 49.6747 28.9446 50.9763 27.6429L55.286 23.3333L50.9763 19.0237C49.6747 17.7219 49.6747 15.6114 50.9763 14.3096ZM43.194 29.9824C43.204 31.8233 41.7193 33.3236 39.8783 33.3333C36.698 33.35 33.5537 34.017 30.6403 35.293C27.7269 36.569 25.1051 38.427 22.9359 40.753C21.6804 42.0993 19.5711 42.173 18.2247 40.9177C16.8783 39.662 16.8047 37.5527 18.0602 36.2063C20.8491 33.2157 24.22 30.8267 27.9658 29.1862C31.7117 27.5457 35.754 26.6883 39.8433 26.6667C41.6843 26.657 43.1843 28.1415 43.194 29.9824ZM45.2523 47.745C43.578 47.0273 41.7747 46.6603 39.9537 46.6667C38.1313 46.673 36.3287 47.0523 34.6603 47.781C32.9914 48.5103 31.4893 49.5737 30.2471 50.906C28.9916 52.2523 26.8823 52.326 25.5359 51.0703C24.1895 49.815 24.1159 47.7057 25.3714 46.3593C27.2348 44.361 29.4878 42.766 31.9915 41.672C34.496 40.5777 37.199 40.0097 39.9303 40C42.6627 39.9903 45.3677 40.541 47.8787 41.6173C50.3893 42.6933 52.6543 44.2723 54.532 46.258C55.797 47.5957 55.738 49.7053 54.4003 50.9703C53.0627 52.2353 50.953 52.1763 49.6883 50.8387C48.437 49.5157 46.9273 48.4627 45.2523 47.745ZM33.3333 60C33.3333 56.318 36.318 53.3333 40 53.3333C43.682 53.3333 46.6667 56.318 46.6667 60C46.6667 63.682 43.682 66.6667 40 66.6667C36.318 66.6667 33.3333 63.682 33.3333 60Z" fill="url(#paint0_linear_3130_7199)"/>
<defs>
<linearGradient id="paint0_linear_3130_7199" x1="38.706" y1="13.3333" x2="38.706" y2="66.6667" gradientUnits="userSpaceOnUse">
<stop stop-color="#FFE0D7"/>
<stop offset="1" stop-color="#FE592A"/>
</linearGradient>
</defs>
</svg>
