<svg width="24" height="24" viewBox="0 0 24 24" fill="none" xmlns="http://www.w3.org/2000/svg">
<path d="M6 14.25H3.75C2.92157 14.25 2.25 14.9216 2.25 15.75V21C2.25 21.8284 2.92157 22.5 3.75 22.5H6C6.82843 22.5 7.5 21.8284 7.5 21V15.75C7.5 14.9216 6.82843 14.25 6 14.25Z" fill="#CDD5DF"/>
<path d="M13.5 11.25H10.5C9.67157 11.25 9 11.9216 9 12.75V21C9 21.8284 9.67157 22.5 10.5 22.5H13.5C14.3284 22.5 15 21.8284 15 21V12.75C15 11.9216 14.3284 11.25 13.5 11.25Z" fill="#CDD5DF"/>
<path d="M20.25 15H18C17.1716 15 16.5 15.6716 16.5 16.5V21C16.5 21.8284 17.1716 22.5 18 22.5H20.25C21.0784 22.5 21.75 21.8284 21.75 21V16.5C21.75 15.6716 21.0784 15 20.25 15Z" fill="#CDD5DF"/>
<path d="M17.196 8.25C17.403 7.8915 17.8613 7.7685 18.2205 7.9755L18.87 8.3505C19.2293 8.5575 19.3515 9.0165 19.1445 9.375C18.9375 9.7335 18.4793 9.8565 18.12 9.6495L17.4705 9.2745C17.1113 9.0675 16.989 8.6085 17.196 8.25Z" fill="#CDD5DF"/>
<path d="M17.196 2.25C17.403 2.6085 17.8613 2.7315 18.2205 2.5245L18.87 2.1495C19.2293 1.9425 19.3515 1.4835 19.1445 1.125C18.9375 0.7665 18.4793 0.6435 18.12 0.8505L17.4705 1.2255C17.1113 1.4325 16.989 1.8915 17.196 2.25Z" fill="#CDD5DF"/>
<path d="M18 5.25C18 5.664 18.3353 6 18.75 6H19.5C19.9147 6 20.25 5.664 20.25 5.25C20.25 4.836 19.9147 4.5 19.5 4.5H18.75C18.3353 4.5 18 4.836 18 5.25Z" fill="#CDD5DF"/>
<path d="M6.804 8.25C6.597 7.8915 6.13875 7.7685 5.7795 7.9755L5.13 8.3505C4.77075 8.5575 4.6485 9.0165 4.8555 9.375C5.0625 9.7335 5.52075 9.8565 5.88 9.6495L6.5295 9.2745C6.88875 9.0675 7.011 8.6085 6.804 8.25Z" fill="#CDD5DF"/>
<path d="M6.804 2.25C6.597 2.6085 6.13875 2.7315 5.7795 2.5245L5.13 2.1495C4.77075 1.9425 4.6485 1.4835 4.8555 1.125C5.0625 0.7665 5.52075 0.6435 5.88 0.8505L6.5295 1.2255C6.88875 1.4325 7.011 1.8915 6.804 2.25Z" fill="#CDD5DF"/>
<path d="M4.5 6H5.25C5.66475 6 6 5.664 6 5.25C6 4.836 5.66475 4.5 5.25 4.5H4.5C4.08525 4.5 3.75 4.836 3.75 5.25C3.75 5.664 4.08525 6 4.5 6Z" fill="#CDD5DF"/>
<path d="M16.053 4.665L14.6093 6.07275L14.9505 8.06025C15.063 8.71575 14.3745 9.216 13.7858 8.90625L12.0008 7.968L10.2158 8.90625C9.62703 9.216 8.93853 8.71575 9.05103 8.06025L9.39228 6.07275L7.94853 4.665C7.47228 4.20075 7.73478 3.3915 8.39328 3.2955L10.389 3.00525L11.2815 1.197C11.5763 0.600751 12.4268 0.600751 12.7208 1.197L13.6133 3.00525L15.609 3.2955C16.2675 3.3915 16.53 4.2 16.0538 4.665H16.053Z" fill="#CDD5DF"/>
</svg>
