<svg width="80" height="80" viewBox="0 0 80 80" fill="none" xmlns="http://www.w3.org/2000/svg">
<path d="M69.9999 40C70.0023 39.0309 70.2186 38.0742 70.6335 37.1984C71.0484 36.3225 71.6515 35.5491 72.3999 34.9333C73.4675 34.0579 74.2367 32.8724 74.6009 31.5406C74.9652 30.2089 74.9066 28.7969 74.4332 27.5C73.7077 25.4849 72.8158 23.5337 71.7665 21.6667C70.6746 19.8078 69.4256 18.0458 68.0332 16.4C67.1386 15.3489 65.9416 14.5992 64.6054 14.2532C63.2692 13.9073 61.8588 13.9818 60.5665 14.4667C59.6646 14.8118 58.6972 14.952 57.7344 14.8771C56.7716 14.8021 55.8375 14.5139 54.9999 14.0333C54.1631 13.5465 53.4431 12.8825 52.8903 12.0878C52.3375 11.2932 51.9653 10.3871 51.7999 9.43333C51.5664 8.05612 50.9124 6.78492 49.9276 5.79421C48.9429 4.8035 47.6756 4.14182 46.2999 3.89999C42.1319 3.16666 37.8679 3.16666 33.6999 3.89999C32.3195 4.13105 31.0464 4.78923 30.0597 5.78187C29.0731 6.7745 28.4226 8.05159 28.1999 9.43333C28.0279 10.3848 27.6531 11.2881 27.1009 12.0819C26.5487 12.8756 25.8322 13.5412 24.9999 14.0333C24.1613 14.5099 23.2291 14.7985 22.2679 14.879C21.3067 14.9596 20.3395 14.8303 19.4332 14.5C18.1252 14.0105 16.6973 13.9401 15.3475 14.2984C13.9977 14.6568 12.7928 15.4262 11.8999 16.5C9.17199 19.7381 7.02886 23.4265 5.56653 27.4C5.09297 28.7128 5.03404 30.1393 5.3977 31.4866C5.76137 32.834 6.53008 34.0371 7.59987 34.9333C8.35007 35.5475 8.95453 36.3206 9.36959 37.1968C9.78465 38.073 9.99995 39.0305 9.99995 40C9.99995 40.9695 9.78465 41.927 9.36959 42.8032C8.95453 43.6794 8.35007 44.4525 7.59987 45.0667C6.53224 45.9421 5.76308 47.1276 5.3988 48.4593C5.03452 49.791 5.09313 51.2031 5.56653 52.5C6.29199 54.5151 7.18396 56.4663 8.2332 58.3333C9.32512 60.1922 10.5741 61.9542 11.9665 63.6C12.8659 64.6446 14.0629 65.3895 15.3973 65.7351C16.7318 66.0806 18.1399 66.0102 19.4332 65.5333C20.3351 65.1881 21.3025 65.0479 22.2654 65.1229C23.2282 65.1978 24.1622 65.4861 24.9999 65.9667C25.8366 66.4535 26.5566 67.1175 27.1095 67.9122C27.6623 68.7068 28.0344 69.6129 28.1999 70.5667C28.4226 71.9484 29.0731 73.2255 30.0597 74.2181C31.0464 75.2108 32.3195 75.8689 33.6999 76.1C35.7571 76.4704 37.8429 76.66 39.9332 76.6667C42.0678 76.6615 44.1979 76.4719 46.2999 76.1C47.6802 75.8689 48.9534 75.2108 49.94 74.2181C50.9267 73.2255 51.5772 71.9484 51.7999 70.5667C51.9719 69.6152 52.3467 68.7119 52.8988 67.9181C53.451 67.1244 54.1676 66.4588 54.9999 65.9667C55.8382 65.4894 56.7705 65.2005 57.7318 65.1199C58.6931 65.0393 59.6604 65.169 60.5665 65.5C61.8722 66.0076 63.3053 66.0875 64.6592 65.728C66.0132 65.3686 67.218 64.5884 68.0999 63.5C70.8346 60.2667 72.9785 56.577 74.4332 52.6C74.9068 51.2872 74.9657 49.8607 74.602 48.5133C74.2384 47.166 73.4697 45.9629 72.3999 45.0667C71.6515 44.4509 71.0484 43.6774 70.6335 42.8016C70.2186 41.9258 70.0023 40.9691 69.9999 40ZM26.6892 48.024C26.3799 48.3335 26.0126 48.5789 25.6083 48.7464C25.2041 48.9139 24.7708 49 24.3332 49C24.0969 48.9993 23.8613 48.9741 23.6302 48.925C23.0858 48.8078 22.5795 48.556 22.1576 48.1927C21.7356 47.8293 21.4115 47.3659 21.2149 46.845C20.3983 44.6558 19.9866 42.3364 19.9999 40C20.0057 34.6975 22.1147 29.6138 25.8642 25.8643C29.6136 22.1148 34.6973 20.0058 39.9999 20C42.3365 19.9865 44.6561 20.3979 46.8455 21.2143C47.2551 21.3691 47.6301 21.603 47.9492 21.9026C48.2684 22.2023 48.5254 22.5619 48.7055 22.9609C48.8857 23.3599 48.9855 23.7905 48.9992 24.2281C49.013 24.6656 48.9404 25.1016 48.7857 25.5112C48.631 25.9207 48.3971 26.2957 48.0974 26.6149C47.7977 26.934 47.4381 27.191 47.0391 27.3711C46.6401 27.5513 46.2095 27.6511 45.772 27.6649C45.3344 27.6786 44.8984 27.6061 44.4889 27.4513C43.0524 26.92 41.5314 26.6541 39.9999 26.6667C36.7176 26.6705 33.5517 27.8831 31.1066 30.0729C28.6616 32.2627 27.1087 35.2763 26.7445 38.5383L27.6445 37.6433C28.2732 37.0361 29.1152 36.7002 29.9892 36.7077C30.8632 36.7153 31.6992 37.0659 32.3173 37.6839C32.9353 38.302 33.2859 39.138 33.2934 40.012C33.301 40.886 32.9651 41.728 32.3579 42.3567L26.6892 48.024ZM39.9999 60C37.6632 60.0135 35.3436 59.6021 33.1542 58.7857C32.3271 58.4731 31.6581 57.8449 31.2942 57.0391C30.9304 56.2332 30.9015 55.3159 31.214 54.4888C31.5266 53.6617 32.1548 52.9927 32.9606 52.6288C33.7664 52.265 34.6838 52.2361 35.5109 52.5487C36.9473 53.08 38.4684 53.3459 39.9999 53.3333C43.2822 53.3295 46.4481 52.1169 48.8931 49.9271C51.3381 47.7373 52.891 44.7237 53.2552 41.4617L52.3552 42.3567C51.7265 42.9639 50.8845 43.2998 50.0105 43.2922C49.1365 43.2846 48.3005 42.9341 47.6825 42.3161C47.0644 41.698 46.7139 40.862 46.7063 39.988C46.6987 39.114 47.0347 38.272 47.6419 37.6433L53.3085 31.9767C53.7024 31.5828 54.1887 31.2939 54.7229 31.1364C55.2572 30.9789 55.8224 30.9578 56.3669 31.075C56.9114 31.1922 57.4179 31.4439 57.84 31.8073C58.2622 32.1706 58.5866 32.634 58.7835 33.155C59.6005 35.3441 60.0127 37.6635 59.9999 40C59.994 45.3025 57.885 50.3862 54.1356 54.1357C50.3861 57.8852 45.3024 59.9942 39.9999 60Z" fill="url(#paint0_linear_3130_6939)"/>
<defs>
<linearGradient id="paint0_linear_3130_6939" x1="39.9999" y1="3.34999" x2="39.9999" y2="76.6667" gradientUnits="userSpaceOnUse">
<stop stop-color="#FFE0D7"/>
<stop offset="1" stop-color="#FE592A"/>
</linearGradient>
</defs>
</svg>
